<?xml version="1.0" encoding="UTF-8"?>
<!DOCTYPE svg PUBLIC "-//W3C//DTD SVG 1.1//EN" "http://www.w3.org/Graphics/SVG/1.1/DTD/svg11.dtd">
<svg xmlns="http://www.w3.org/2000/svg" version="1.1" width="375px" height="181px" style="shape-rendering:geometricPrecision; text-rendering:geometricPrecision; image-rendering:optimizeQuality; fill-rule:evenodd; clip-rule:evenodd" xmlns:xlink="http://www.w3.org/1999/xlink">
<g><path style="opacity:0.994" fill="#00732f" d="M -0.5,-0.5 C 35.1667,-0.5 70.8333,-0.5 106.5,-0.5C 86.3119,49.3914 94.1452,94.3914 130,134.5C 171.634,172.623 218.467,180.457 270.5,158C 297.729,143.604 317.062,122.104 328.5,93.5C 328.833,93.5 329.167,93.5 329.5,93.5C 343.985,98.859 358.985,101.526 374.5,101.5C 374.5,120.833 374.5,140.167 374.5,159.5C 265.69,181.638 156.357,184.471 46.5,168C 30.6759,165.402 15.0092,162.235 -0.5,158.5C -0.5,105.5 -0.5,52.5 -0.5,-0.5 Z"/></g>
<g><path style="opacity:1" fill="#0b7938" d="M 106.5,-0.5 C 155.167,-0.5 203.833,-0.5 252.5,-0.5C 261.345,44.3285 286.678,75.6618 328.5,93.5C 317.062,122.104 297.729,143.604 270.5,158C 218.467,180.457 171.634,172.623 130,134.5C 94.1452,94.3914 86.3119,49.3914 106.5,-0.5 Z"/></g>
<g><path style="opacity:1" fill="#167f41" d="M 252.5,-0.5 C 277.167,-0.5 301.833,-0.5 326.5,-0.5C 340.048,30.3702 341.048,61.7036 329.5,93.5C 329.167,93.5 328.833,93.5 328.5,93.5C 286.678,75.6618 261.345,44.3285 252.5,-0.5 Z"/></g>
<g><path style="opacity:1" fill="#0c7938" d="M 326.5,-0.5 C 342.5,-0.5 358.5,-0.5 374.5,-0.5C 374.5,33.5 374.5,67.5 374.5,101.5C 358.985,101.526 343.985,98.859 329.5,93.5C 341.048,61.7036 340.048,30.3702 326.5,-0.5 Z"/></g>
</svg>
