<?xml version="1.0" encoding="UTF-8"?>
<!DOCTYPE svg PUBLIC "-//W3C//DTD SVG 1.1//EN" "http://www.w3.org/Graphics/SVG/1.1/DTD/svg11.dtd">
<svg xmlns="http://www.w3.org/2000/svg" version="1.1" width="1500px" height="1096px" style="shape-rendering:geometricPrecision; text-rendering:geometricPrecision; image-rendering:optimizeQuality; fill-rule:evenodd; clip-rule:evenodd" xmlns:xlink="http://www.w3.org/1999/xlink">
<g><path style="opacity:1" fill="#00732f" d="M -0.5,-0.5 C 186.833,-0.5 374.167,-0.5 561.5,-0.5C 438.132,104.956 378.965,239.29 384,402.5C 395.865,554.77 462.365,676.603 583.5,768C 711.339,856.509 850.673,880.842 1001.5,841C 1131.27,801.066 1229.1,721.899 1295,603.5C 1303.18,587.433 1310.68,571.1 1317.5,554.5C 1378.7,563.306 1439.37,560.639 1499.5,546.5C 1499.5,673.833 1499.5,801.167 1499.5,928.5C 1354.31,996.617 1202.31,1042.45 1043.5,1066C 812.642,1100.36 582.976,1094.02 354.5,1047C 231.367,1020.9 113.034,980.734 -0.5,926.5C -0.5,617.5 -0.5,308.5 -0.5,-0.5 Z"/></g>
<g><path style="opacity:1" fill="#0c7939" d="M 561.5,-0.5 C 677.5,-0.5 793.5,-0.5 909.5,-0.5C 888.433,152.561 928.6,286.894 1030,402.5C 1107.89,486.368 1203.72,537.034 1317.5,554.5C 1310.68,571.1 1303.18,587.433 1295,603.5C 1229.1,721.899 1131.27,801.066 1001.5,841C 850.673,880.842 711.339,856.509 583.5,768C 462.365,676.603 395.865,554.77 384,402.5C 378.965,239.29 438.132,104.956 561.5,-0.5 Z"/></g>
<g><path style="opacity:1" fill="#188043" d="M 909.5,-0.5 C 997.5,-0.5 1085.5,-0.5 1173.5,-0.5C 1296.87,104.966 1356.04,239.3 1351,402.5C 1348.19,455.075 1337.02,505.742 1317.5,554.5C 1203.72,537.034 1107.89,486.368 1030,402.5C 928.6,286.894 888.433,152.561 909.5,-0.5 Z"/></g>
<g><path style="opacity:1" fill="#0d7a3a" d="M 1173.5,-0.5 C 1282.17,-0.5 1390.83,-0.5 1499.5,-0.5C 1499.5,181.833 1499.5,364.167 1499.5,546.5C 1439.37,560.639 1378.7,563.306 1317.5,554.5C 1337.02,505.742 1348.19,455.075 1351,402.5C 1356.04,239.3 1296.87,104.966 1173.5,-0.5 Z"/></g>
<g><path style="opacity:1" fill="#fefefe" d="M -0.5,926.5 C 113.034,980.734 231.367,1020.9 354.5,1047C 582.976,1094.02 812.642,1100.36 1043.5,1066C 1202.31,1042.45 1354.31,996.617 1499.5,928.5C 1499.5,984.167 1499.5,1039.83 1499.5,1095.5C 999.5,1095.5 499.5,1095.5 -0.5,1095.5C -0.5,1039.17 -0.5,982.833 -0.5,926.5 Z"/></g>
</svg>
