<?xml version="1.0" encoding="UTF-8"?>
<!DOCTYPE svg PUBLIC "-//W3C//DTD SVG 1.1//EN" "http://www.w3.org/Graphics/SVG/1.1/DTD/svg11.dtd">
<svg xmlns="http://www.w3.org/2000/svg" version="1.1" width="180px" height="178px" style="shape-rendering:geometricPrecision; text-rendering:geometricPrecision; image-rendering:optimizeQuality; fill-rule:evenodd; clip-rule:evenodd" xmlns:xlink="http://www.w3.org/1999/xlink">
<g><path style="opacity:1" fill="#fdfdfe" d="M -0.5,-0.5 C 59.5,-0.5 119.5,-0.5 179.5,-0.5C 179.5,58.8333 179.5,118.167 179.5,177.5C 119.5,177.5 59.5,177.5 -0.5,177.5C -0.5,118.167 -0.5,58.8333 -0.5,-0.5 Z"/></g>
<g><path style="opacity:1" fill="#4da7dc" d="M 144.5,173.5 C 99.1667,173.5 53.8333,173.5 8.5,173.5C 8.5,132.833 8.5,92.1667 8.5,51.5C 23.1457,37.521 37.479,23.1877 51.5,8.5C 82.4928,7.50015 113.493,7.16682 144.5,7.5C 144.666,14.5079 144.5,21.5079 144,28.5C 140.333,32.1667 136.667,35.8333 133,39.5C 132.5,33.1754 132.334,26.8421 132.5,20.5C 109.164,20.3334 85.831,20.5 62.5,21C 65.7496,31.9912 67.4162,43.1579 67.5,54.5C 51.8766,59.0419 36.21,63.3752 20.5,67.5C 20.5,99.1667 20.5,130.833 20.5,162.5C 57.8333,162.5 95.1667,162.5 132.5,162.5C 132.333,151.162 132.5,139.828 133,128.5C 137.048,124.12 140.715,119.454 144,114.5C 144.5,134.164 144.667,153.831 144.5,173.5 Z"/></g>
<g><path style="opacity:1" fill="#fbfdfe" d="M 50.5,25.5 C 53.8114,31.6742 55.3114,38.3409 55,45.5C 44.1624,48.5837 33.329,51.417 22.5,54C 32.0356,44.6317 41.3689,35.1317 50.5,25.5 Z"/></g>
<g><path style="opacity:1" fill="#273f77" d="M 155.5,30.5 C 160.039,29.9569 163.873,31.2902 167,34.5C 168.065,42.4358 168.565,50.4358 168.5,58.5C 174.221,60.6799 176.721,64.6799 176,70.5C 170.586,80.331 164.919,89.9977 159,99.5C 156.259,98.7785 155.259,97.1118 156,94.5C 161.242,85.8466 166.075,77.0133 170.5,68C 169.148,63.5699 166.648,62.7365 163,65.5C 156.088,78.9925 148.921,92.3259 141.5,105.5C 131.003,99.7525 120.67,93.7525 110.5,87.5C 119.824,69.0106 131.491,52.1772 145.5,37C 148.728,34.5603 152.061,32.3936 155.5,30.5 Z"/></g>
<g><path style="opacity:1" fill="#263e77" d="M 80.5,47.5 C 91.8382,47.3335 103.172,47.5001 114.5,48C 118.02,50.2373 118.353,52.9039 115.5,56C 103.833,56.6667 92.1667,56.6667 80.5,56C 77.8987,53.1705 77.8987,50.3371 80.5,47.5 Z"/></g>
<g><path style="opacity:1" fill="#2e447b" d="M 45.5,72.5 C 67.1769,72.167 88.8436,72.5003 110.5,73.5C 109.361,76.9473 107.361,79.7806 104.5,82C 84.8333,82.6667 65.1667,82.6667 45.5,82C 41.5808,78.8397 41.5808,75.673 45.5,72.5 Z"/></g>
<g><path style="opacity:1" fill="#6778a0" d="M 45.5,95.5 C 63.3378,94.1726 81.3378,94.1726 99.5,95.5C 99.3764,96.1067 99.0431,96.44 98.5,96.5C 81.0079,95.5033 63.3412,95.1699 45.5,95.5 Z"/></g>
<g><path style="opacity:1" fill="#273f78" d="M 107.5,94.5 C 117.64,99.4018 127.307,105.068 136.5,111.5C 129.167,123.5 119.5,133.167 107.5,140.5C 104.554,138.112 101.387,136.112 98,134.5C 96.3297,128.475 96.6631,122.475 99,116.5C 101.155,108.863 103.988,101.53 107.5,94.5 Z"/></g>
<g><path style="opacity:1" fill="#273f77" d="M 45.5,95.5 C 63.3412,95.1699 81.0079,95.5033 98.5,96.5C 97.6422,99.0501 96.6422,101.55 95.5,104C 78.8333,104.667 62.1667,104.667 45.5,104C 41.5329,101.034 41.5329,98.2008 45.5,95.5 Z"/></g>
<g><path style="opacity:1" fill="#5d7099" d="M 45.5,117.5 C 60.3386,116.174 75.3386,116.174 90.5,117.5C 90.3764,118.107 90.0431,118.44 89.5,118.5C 75.0095,117.504 60.3428,117.171 45.5,117.5 Z"/></g>
<g><path style="opacity:1" fill="#284078" d="M 45.5,117.5 C 60.3428,117.171 75.0095,117.504 89.5,118.5C 88.8283,121.343 87.495,123.843 85.5,126C 72.1667,126.667 58.8333,126.667 45.5,126C 41.5518,123.084 41.5518,120.25 45.5,117.5 Z"/></g>
<g><path style="opacity:1" fill="#32477d" d="M 96.5,142.5 C 98.0898,142.628 99.4231,143.295 100.5,144.5C 95.0811,151.33 93.7478,150.663 96.5,142.5 Z"/></g>
<g><path style="opacity:1" fill="#aad5ee" d="M 8.5,51.5 C 8.5,92.1667 8.5,132.833 8.5,173.5C 53.8333,173.5 99.1667,173.5 144.5,173.5C 99.003,174.499 53.3364,174.832 7.5,174.5C 7.16805,133.33 7.50138,92.3299 8.5,51.5 Z"/></g>
</svg>
