<?xml version="1.0" encoding="UTF-8"?>
<!DOCTYPE svg PUBLIC "-//W3C//DTD SVG 1.1//EN" "http://www.w3.org/Graphics/SVG/1.1/DTD/svg11.dtd">
<svg xmlns="http://www.w3.org/2000/svg" version="1.1" width="225px" height="224px" style="shape-rendering:geometricPrecision; text-rendering:geometricPrecision; image-rendering:optimizeQuality; fill-rule:evenodd; clip-rule:evenodd" xmlns:xlink="http://www.w3.org/1999/xlink">
<g><path style="opacity:1" fill="#fdfefe" d="M -0.5,-0.5 C 74.5,-0.5 149.5,-0.5 224.5,-0.5C 224.5,74.1667 224.5,148.833 224.5,223.5C 149.5,223.5 74.5,223.5 -0.5,223.5C -0.5,148.833 -0.5,74.1667 -0.5,-0.5 Z"/></g>
<g><path style="opacity:1" fill="#72a1cc" d="M 105.5,6.5 C 101.02,7.52062 96.353,8.18729 91.5,8.5C 95.8807,6.78945 100.547,6.12278 105.5,6.5 Z"/></g>
<g><path style="opacity:1" fill="#2978b5" d="M 105.5,6.5 C 147.035,5.18383 179.535,21.5172 203,55.5C 209.437,66.0442 213.937,77.3775 216.5,89.5C 216.565,92.4282 217.232,95.0948 218.5,97.5C 222.32,156.398 196.654,195.898 141.5,216C 90.454,227.216 50.2873,211.383 21,168.5C 7.92693,146.2 3.0936,122.2 6.5,96.5C 8.03954,94.1617 8.70621,91.4951 8.5,88.5C 18.2516,51.5785 40.9182,26.0785 76.5,12C 81.5042,10.6649 86.5042,9.49827 91.5,8.5C 96.353,8.18729 101.02,7.52062 105.5,6.5 Z"/></g>
<g><path style="opacity:1" fill="#f7fafc" d="M 145.5,84.5 C 146.167,84.5 146.5,84.8333 146.5,85.5C 137.189,95.8133 127.855,106.147 118.5,116.5C 119.035,118.101 120.035,118.601 121.5,118C 129.866,110.16 138.199,102.326 146.5,94.5C 147.167,94.5 147.5,94.8333 147.5,95.5C 153.961,103.123 161.295,109.956 169.5,116C 180.196,126.057 183.529,138.223 179.5,152.5C 150.009,162.239 120.675,172.572 91.5,183.5C 91.5385,176.624 91.3718,169.624 91,162.5C 90.1376,160.913 89.4709,159.246 89,157.5C 76.8063,145.728 64.8063,133.728 53,121.5C 44.7912,106.589 42.7912,90.9221 47,74.5C 76.2102,63.5646 105.544,52.8979 135,42.5C 136.784,43.3325 136.784,44.3325 135,45.5C 131.905,60.5904 133.905,74.9237 141,88.5C 142.371,86.9586 143.871,85.6253 145.5,84.5 Z"/></g>
<g><path style="opacity:1" fill="#e5eef6" d="M 147.5,95.5 C 147.5,94.8333 147.167,94.5 146.5,94.5C 149.963,90.5357 153.63,86.7023 157.5,83C 156.275,81.437 154.775,80.2703 153,79.5C 151.027,81.6366 148.861,83.6366 146.5,85.5C 146.5,84.8333 146.167,84.5 145.5,84.5C 156.622,70.873 167.956,57.373 179.5,44C 180.833,43.3333 182.167,43.3333 183.5,44C 186.551,46.7143 189.218,49.7143 191.5,53C 177.307,67.6935 162.64,81.8602 147.5,95.5 Z"/></g>
<g><path style="opacity:1" fill="#327db8" d="M 180.5,45.5 C 183.899,47.3883 186.899,49.8883 189.5,53C 179.833,62 170.167,71 160.5,80C 156.008,79.6758 154.842,77.5092 157,73.5C 165.087,64.2898 172.921,54.9565 180.5,45.5 Z"/></g>
<g><path style="opacity:1" fill="#98bbdb" d="M 178.5,58.5 C 179.141,57.5178 179.807,56.5178 180.5,55.5C 180.043,54.7025 179.376,54.3691 178.5,54.5C 181.458,50.5821 182.625,51.2488 182,56.5C 181.184,57.8228 180.017,58.4894 178.5,58.5 Z"/></g>
<g><path style="opacity:1" fill="#4083bc" d="M 109.5,102.5 C 115.407,99.0786 121.74,96.4119 128.5,94.5C 130.002,92.1674 129.502,90.5007 127,89.5C 108.766,97.021 90.266,103.521 71.5,109C 90.0296,101.698 108.696,94.6983 127.5,88C 128.138,86.2933 128.138,84.46 127.5,82.5C 108.876,88.6512 90.5425,95.4846 72.5,103C 71.1667,103.667 69.8333,103.667 68.5,103C 87.6723,95.4984 106.839,87.9984 126,80.5C 126.494,78.8659 126.66,77.1992 126.5,75.5C 122.014,77.4063 117.347,78.7396 112.5,79.5C 116.395,76.8655 120.728,75.1988 125.5,74.5C 125.334,67.1591 125.5,59.8258 126,52.5C 126.897,49.4698 128.397,48.6364 130.5,50C 129.386,57.1292 129.219,64.2959 130,71.5C 132.385,78.6543 134.718,85.6543 137,92.5C 135.39,94.731 133.557,96.731 131.5,98.5C 130.749,97.624 130.249,96.624 130,95.5C 123.308,98.2634 116.475,100.597 109.5,102.5 Z"/></g>
<g><path style="opacity:1" fill="#3c84be" d="M 178.5,54.5 C 179.376,54.3691 180.043,54.7025 180.5,55.5C 179.807,56.5178 179.141,57.5178 178.5,58.5C 173.702,62.7967 169.035,67.2967 164.5,72C 163.833,72.6667 163.167,72.6667 162.5,72C 168.431,66.5758 173.764,60.7425 178.5,54.5 Z"/></g>
<g><path style="opacity:1" fill="#afcce4" d="M 178.5,54.5 C 173.764,60.7425 168.431,66.5758 162.5,72C 163.167,72.6667 163.833,72.6667 164.5,72C 169.035,67.2967 173.702,62.7967 178.5,58.5C 174.433,64.0746 169.766,69.2413 164.5,74C 162.763,74.6123 161.763,73.9457 161.5,72C 166.658,65.6751 172.325,59.8418 178.5,54.5 Z"/></g>
<g><path style="opacity:1" fill="#367eb9" d="M 146.5,94.5 C 138.199,102.326 129.866,110.16 121.5,118C 120.035,118.601 119.035,118.101 118.5,116.5C 127.855,106.147 137.189,95.8133 146.5,85.5C 148.861,83.6366 151.027,81.6366 153,79.5C 154.775,80.2703 156.275,81.437 157.5,83C 153.63,86.7023 149.963,90.5357 146.5,94.5 Z"/></g>
<g><path style="opacity:1" fill="#508dc2" d="M 121.5,67.5 C 124.113,68.0955 124.113,68.9288 121.5,70C 102.029,76.6586 82.696,83.8252 63.5,91.5C 63.1667,91.1667 62.8333,90.8333 62.5,90.5C 82.1535,82.6189 101.82,74.9523 121.5,67.5 Z"/></g>
<g><path style="opacity:1" fill="#518ec2" d="M 112.5,79.5 C 98.0605,85.6241 83.3938,91.4574 68.5,97C 67.365,97.7494 66.365,97.5827 65.5,96.5C 80.9745,90.2314 96.6412,84.5647 112.5,79.5 Z"/></g>
<g><path style="opacity:1" fill="#397fb9" d="M 54.5,84.5 C 57.6668,87.6371 60.0001,91.4704 61.5,96C 59.1681,97.9573 56.5014,99.4573 53.5,100.5C 50.678,96.524 48.678,92.1906 47.5,87.5C 50.2406,87.2927 52.5739,86.2927 54.5,84.5 Z"/></g>
<g><path style="opacity:1" fill="#e0ebf5" d="M 52.5,87.5 C 55.443,89.0482 56.443,91.3815 55.5,94.5C 54.769,92.1952 53.4357,90.3618 51.5,89C 52.056,88.6174 52.3893,88.1174 52.5,87.5 Z"/></g>
<g><path style="opacity:1" fill="#8cb3d6" d="M 8.5,88.5 C 8.70621,91.4951 8.03954,94.1617 6.5,96.5C 6.56513,93.5718 7.2318,90.9052 8.5,88.5 Z"/></g>
<g><path style="opacity:1" fill="#a7c4e0" d="M 216.5,89.5 C 218.04,91.8383 218.706,94.5049 218.5,97.5C 217.232,95.0948 216.565,92.4282 216.5,89.5 Z"/></g>
<g><path style="opacity:1" fill="#377fb9" d="M 61.5,99.5 C 62.3764,99.3691 63.0431,99.7025 63.5,100.5C 64.8845,104.164 66.5511,107.664 68.5,111C 65.8072,113.292 62.8072,115.125 59.5,116.5C 57.1416,112.953 55.1416,109.12 53.5,105C 53.6448,104.228 53.9781,103.561 54.5,103C 57.0691,102.102 59.4024,100.935 61.5,99.5 Z"/></g>
<g><path style="opacity:1" fill="#2a79b5" d="M 143.5,99.5 C 150.335,105.499 157.335,111.332 164.5,117C 174.935,125.313 178.935,136.147 176.5,149.5C 149.407,158.73 122.407,167.896 95.5,177C 96.2891,174.635 97.4558,172.468 99,170.5C 112.603,161.229 124.603,150.229 135,137.5C 140.57,129.709 140.903,121.709 136,113.5C 135.333,111.5 135.333,109.5 136,107.5C 138.705,104.964 141.205,102.297 143.5,99.5 Z"/></g>
<g><path style="opacity:1" fill="#dae7f2" d="M 59.5,105.5 C 60.552,105.351 61.552,105.517 62.5,106C 62.9963,107.996 63.9963,109.663 65.5,111C 61.4706,114.914 60.1373,114.248 61.5,109C 60.6161,107.902 59.6161,107.402 58.5,107.5C 58.8627,106.817 59.1961,106.15 59.5,105.5 Z"/></g>
<g><path style="opacity:1" fill="#4b8bc1" d="M 118.5,106.5 C 120.688,104.245 123.354,103.411 126.5,104C 124.091,105.707 121.425,106.54 118.5,106.5 Z"/></g>
<g><path style="opacity:1" fill="#508dc2" d="M 109.5,102.5 C 98.4739,107.672 87.1406,112.339 75.5,116.5C 75.1667,116.167 74.8333,115.833 74.5,115.5C 85.8,110.178 97.4667,105.844 109.5,102.5 Z"/></g>
<g><path style="opacity:1" fill="#5590c4" d="M 118.5,106.5 C 105.481,112.333 92.1475,117.666 78.5,122.5C 78.1667,122.167 77.8333,121.833 77.5,121.5C 81.4232,119.577 85.4232,117.744 89.5,116C 99.0185,112.327 108.685,109.16 118.5,106.5 Z"/></g>
<g><path style="opacity:1" fill="#3780bb" d="M 68.5,115.5 C 69.4959,115.414 70.3292,115.748 71,116.5C 72.7771,119.72 74.2771,123.053 75.5,126.5C 73.5038,128.795 71.0038,130.462 68,131.5C 65.1989,128.069 63.0322,124.235 61.5,120C 63.8981,118.476 66.2314,116.976 68.5,115.5 Z"/></g>
<g><path style="opacity:1" fill="#e1ecf5" d="M 66.5,118.5 C 67.8333,118.5 69.1667,118.5 70.5,118.5C 70.3832,120.484 71.0499,122.15 72.5,123.5C 71.6518,125.283 70.3185,125.783 68.5,125C 71.001,123.582 70.6677,122.582 67.5,122C 67.8333,121.667 68.1667,121.333 68.5,121C 66.065,120.925 65.3984,120.092 66.5,118.5 Z"/></g>
<g><path style="opacity:1" fill="#508dc1" d="M 115.5,118.5 C 116.995,118.415 117.995,119.081 118.5,120.5C 115.673,122.496 113.339,124.996 111.5,128C 108.833,128 106.167,128 103.5,128C 101.426,132.469 98.0925,133.803 93.5,132C 91.1645,137.217 87.8312,137.884 83.5,134C 85.1786,133.605 86.8453,133.772 88.5,134.5C 90.299,132.538 92.299,130.871 94.5,129.5C 98.7625,131.52 101.763,130.353 103.5,126C 106.167,126 108.833,126 111.5,126C 113.494,123.842 114.828,121.342 115.5,118.5 Z"/></g>
</svg>
