<?xml version="1.0" encoding="UTF-8"?>
<!DOCTYPE svg PUBLIC "-//W3C//DTD SVG 1.1//EN" "http://www.w3.org/Graphics/SVG/1.1/DTD/svg11.dtd">
<svg xmlns="http://www.w3.org/2000/svg" version="1.1" width="512px" height="512px" style="shape-rendering:geometricPrecision; text-rendering:geometricPrecision; image-rendering:optimizeQuality; fill-rule:evenodd; clip-rule:evenodd" xmlns:xlink="http://www.w3.org/1999/xlink">
<g><path style="opacity:0.997" fill="#6dd2f0" d="M 287.5,55.5 C 287.5,66.1667 287.5,76.8333 287.5,87.5C 287.5,92.8333 287.5,98.1667 287.5,103.5C 228.833,103.5 170.167,103.5 111.5,103.5C 111.5,98.1667 111.5,92.8333 111.5,87.5C 111.5,76.8333 111.5,66.1667 111.5,55.5C 111.177,47.9807 114.51,42.814 121.5,40C 134.162,39.5001 146.829,39.3334 159.5,39.5C 159.177,31.9807 162.51,26.814 169.5,24C 189.5,23.3333 209.5,23.3333 229.5,24C 236.49,26.814 239.823,31.9807 239.5,39.5C 252.171,39.3334 264.838,39.5001 277.5,40C 284.49,42.814 287.823,47.9807 287.5,55.5 Z"/></g>
<g><path style="opacity:0.999" fill="#3397e8" d="M 111.5,55.5 C 111.5,66.1667 111.5,76.8333 111.5,87.5C 92.8333,87.5 74.1667,87.5 55.5,87.5C 55.5,210.167 55.5,332.833 55.5,455.5C 151.5,455.5 247.5,455.5 343.5,455.5C 343.5,416.167 343.5,376.833 343.5,337.5C 353.53,345.182 364.197,351.849 375.5,357.5C 375.667,397.501 375.5,437.501 375,477.5C 373.167,482 370,485.167 365.5,487C 254.833,487.667 144.167,487.667 33.5,487C 29,485.167 25.8333,482 24,477.5C 23.3333,340.167 23.3333,202.833 24,65.5C 25.8333,61 29,57.8333 33.5,56C 59.4979,55.5 85.4979,55.3334 111.5,55.5 Z"/></g>
<g><path style="opacity:0.999" fill="#3397e8" d="M 287.5,55.5 C 313.502,55.3334 339.502,55.5 365.5,56C 370,57.8333 373.167,61 375,65.5C 375.5,90.1644 375.667,114.831 375.5,139.5C 365.178,146.664 354.511,153.331 343.5,159.5C 343.5,135.5 343.5,111.5 343.5,87.5C 324.833,87.5 306.167,87.5 287.5,87.5C 287.5,76.8333 287.5,66.1667 287.5,55.5 Z"/></g>
<g><path style="opacity:1" fill="#e8edf1" d="M 111.5,87.5 C 111.5,92.8333 111.5,98.1667 111.5,103.5C 170.167,103.5 228.833,103.5 287.5,103.5C 287.5,98.1667 287.5,92.8333 287.5,87.5C 306.167,87.5 324.833,87.5 343.5,87.5C 343.5,111.5 343.5,135.5 343.5,159.5C 326.509,170.665 309.176,181.332 291.5,191.5C 246.499,191.333 201.499,191.5 156.5,192C 152.139,194.226 150.639,197.726 152,202.5C 152.833,204.667 154.333,206.167 156.5,207C 197.499,207.5 238.499,207.667 279.5,207.5C 280.194,212.805 280.528,218.138 280.5,223.5C 239.165,223.333 197.832,223.5 156.5,224C 151.465,227.013 150.298,231.18 153,236.5C 153.903,237.701 155.069,238.535 156.5,239C 198.499,239.5 240.499,239.667 282.5,239.5C 284.571,244.201 285.904,249.201 286.5,254.5C 243.335,255.333 200.002,255.833 156.5,256C 152.139,258.226 150.639,261.726 152,266.5C 152.833,268.667 154.333,270.167 156.5,271C 201.832,271.5 247.165,271.667 292.5,271.5C 294.832,276.828 297.165,282.162 299.5,287.5C 251.832,287.333 204.166,287.5 156.5,288C 151.465,291.013 150.298,295.18 153,300.5C 153.903,301.701 155.069,302.535 156.5,303C 207.499,303.5 258.499,303.667 309.5,303.5C 319.139,316.473 330.473,327.806 343.5,337.5C 343.5,376.833 343.5,416.167 343.5,455.5C 247.5,455.5 151.5,455.5 55.5,455.5C 55.5,332.833 55.5,210.167 55.5,87.5C 74.1667,87.5 92.8333,87.5 111.5,87.5 Z"/></g>
<g><path style="opacity:1" fill="#dadcde" d="M 84.5,127.5 C 160.834,127.333 237.167,127.5 313.5,128C 319.448,130.433 320.948,134.6 318,140.5C 316.829,141.893 315.329,142.727 313.5,143C 237.167,143.667 160.833,143.667 84.5,143C 79.4648,139.987 78.2981,135.82 81,130.5C 82.1451,129.364 83.3117,128.364 84.5,127.5 Z"/></g>
<g><path style="opacity:0.993" fill="#6ed2f0" d="M 375.5,357.5 C 364.197,351.849 353.53,345.182 343.5,337.5C 330.473,327.806 319.139,316.473 309.5,303.5C 306.555,297.896 303.221,292.562 299.5,287.5C 297.165,282.162 294.832,276.828 292.5,271.5C 290.473,265.748 288.473,260.081 286.5,254.5C 285.904,249.201 284.571,244.201 282.5,239.5C 282.218,233.979 281.551,228.646 280.5,223.5C 280.528,218.138 280.194,212.805 279.5,207.5C 279.336,204.813 279.503,202.146 280,199.5C 284.013,196.97 287.846,194.304 291.5,191.5C 309.176,181.332 326.509,170.665 343.5,159.5C 354.511,153.331 365.178,146.664 375.5,139.5C 377.928,137.751 380.594,136.418 383.5,135.5C 418.378,155.857 452.878,176.857 487,198.5C 488.944,263.122 463.111,312.955 409.5,348C 402.04,352.045 394.373,355.712 386.5,359C 382.69,359.587 379.023,359.087 375.5,357.5 Z"/></g>
<g><path style="opacity:1" fill="#dadcde" d="M 84.5,159.5 C 160.834,159.333 237.167,159.5 313.5,160C 319.448,162.433 320.948,166.6 318,172.5C 316.829,173.893 315.329,174.727 313.5,175C 237.167,175.667 160.833,175.667 84.5,175C 79.4648,171.987 78.2981,167.82 81,162.5C 82.1451,161.364 83.3117,160.364 84.5,159.5 Z"/></g>
<g><path style="opacity:1" fill="#e8edf1" d="M 382.5,173.5 C 406.649,187.164 430.482,201.497 454,216.5C 450.295,265.613 426.795,301.613 383.5,324.5C 340.939,302.102 317.272,266.768 312.5,218.5C 312.608,217.558 312.941,216.725 313.5,216C 336.564,201.808 359.564,187.641 382.5,173.5 Z"/></g>
<g><path style="opacity:1" fill="#d9dcde" d="M 291.5,191.5 C 287.846,194.304 284.013,196.97 280,199.5C 279.503,202.146 279.336,204.813 279.5,207.5C 238.499,207.667 197.499,207.5 156.5,207C 154.333,206.167 152.833,204.667 152,202.5C 150.639,197.726 152.139,194.226 156.5,192C 201.499,191.5 246.499,191.333 291.5,191.5 Z"/></g>
<g><path style="opacity:1" fill="#ea423e" d="M 95.5,199.5 C 106.167,199.5 116.833,199.5 127.5,199.5C 127.5,210.167 127.5,220.833 127.5,231.5C 116.833,231.5 106.167,231.5 95.5,231.5C 95.5,220.833 95.5,210.167 95.5,199.5 Z"/></g>
<g><path style="opacity:1" fill="#d9dcde" d="M 280.5,223.5 C 281.551,228.646 282.218,233.979 282.5,239.5C 240.499,239.667 198.499,239.5 156.5,239C 155.069,238.535 153.903,237.701 153,236.5C 150.298,231.18 151.465,227.013 156.5,224C 197.832,223.5 239.165,223.333 280.5,223.5 Z"/></g>
<g><path style="opacity:1" fill="#eb4643" d="M 412.5,223.5 C 422.044,223.269 425.211,227.602 422,236.5C 408.167,250.333 394.333,264.167 380.5,278C 377.134,279.879 373.8,279.879 370.5,278C 364.667,272.167 358.833,266.333 353,260.5C 350.167,250 354,246.167 364.5,249C 367.833,252.333 371.167,255.667 374.5,259C 375.167,259.667 375.833,259.667 376.5,259C 388.395,246.937 400.395,235.104 412.5,223.5 Z"/></g>
<g><path style="opacity:1" fill="#d9dcde" d="M 286.5,254.5 C 288.473,260.081 290.473,265.748 292.5,271.5C 247.165,271.667 201.832,271.5 156.5,271C 154.333,270.167 152.833,268.667 152,266.5C 150.639,261.726 152.139,258.226 156.5,256C 200.002,255.833 243.335,255.333 286.5,254.5 Z"/></g>
<g><path style="opacity:1" fill="#ea423e" d="M 95.5,263.5 C 106.167,263.5 116.833,263.5 127.5,263.5C 127.5,274.167 127.5,284.833 127.5,295.5C 116.833,295.5 106.167,295.5 95.5,295.5C 95.5,284.833 95.5,274.167 95.5,263.5 Z"/></g>
<g><path style="opacity:1" fill="#d9dcde" d="M 299.5,287.5 C 303.221,292.562 306.555,297.896 309.5,303.5C 258.499,303.667 207.499,303.5 156.5,303C 155.069,302.535 153.903,301.701 153,300.5C 150.298,295.18 151.465,291.013 156.5,288C 204.166,287.5 251.832,287.333 299.5,287.5 Z"/></g>
<g><path style="opacity:1" fill="#dadcde" d="M 156.5,319.5 C 208.834,319.333 261.168,319.5 313.5,320C 319.448,322.433 320.948,326.6 318,332.5C 316.829,333.893 315.329,334.727 313.5,335C 261.167,335.667 208.833,335.667 156.5,335C 151.465,331.987 150.298,327.82 153,322.5C 154.145,321.364 155.312,320.364 156.5,319.5 Z"/></g>
<g><path style="opacity:1" fill="#ea423e" d="M 95.5,327.5 C 106.167,327.5 116.833,327.5 127.5,327.5C 127.5,338.167 127.5,348.833 127.5,359.5C 116.833,359.5 106.167,359.5 95.5,359.5C 95.5,348.833 95.5,338.167 95.5,327.5 Z"/></g>
<g><path style="opacity:1" fill="#dadcde" d="M 156.5,351.5 C 208.834,351.333 261.168,351.5 313.5,352C 319.448,354.433 320.948,358.6 318,364.5C 316.829,365.893 315.329,366.727 313.5,367C 261.167,367.667 208.833,367.667 156.5,367C 151.465,363.987 150.298,359.82 153,354.5C 154.145,353.364 155.312,352.364 156.5,351.5 Z"/></g>
<g><path style="opacity:1" fill="#dadcde" d="M 188.5,399.5 C 224.835,399.333 261.168,399.5 297.5,400C 303.448,402.433 304.948,406.6 302,412.5C 300.829,413.893 299.329,414.727 297.5,415C 261.167,415.667 224.833,415.667 188.5,415C 183.465,411.987 182.298,407.82 185,402.5C 186.145,401.364 187.312,400.364 188.5,399.5 Z"/></g>
</svg>
