<?xml version="1.0" encoding="UTF-8"?>
<!DOCTYPE svg PUBLIC "-//W3C//DTD SVG 1.1//EN" "http://www.w3.org/Graphics/SVG/1.1/DTD/svg11.dtd">
<svg xmlns="http://www.w3.org/2000/svg" version="1.1" width="512px" height="512px" style="shape-rendering:geometricPrecision; text-rendering:geometricPrecision; image-rendering:optimizeQuality; fill-rule:evenodd; clip-rule:evenodd" xmlns:xlink="http://www.w3.org/1999/xlink">
<g><path style="opacity:0.955" fill="#5a99d1" d="M 198.5,20.5 C 221.622,19.3903 238.956,28.7236 250.5,48.5C 269.248,49.0244 287.914,49.8578 306.5,51C 307.333,51.8333 308.167,52.6667 309,53.5C 309.5,66.8292 309.667,80.1625 309.5,93.5C 335.169,93.3334 360.835,93.5 386.5,94C 388.329,94.2735 389.829,95.1068 391,96.5C 392.651,127.748 392.985,159.081 392,190.5C 387.829,196.729 383.163,197.062 378,191.5C 377.5,163.835 377.333,136.169 377.5,108.5C 354.833,108.5 332.167,108.5 309.5,108.5C 309.667,121.837 309.5,135.171 309,148.5C 308.5,150.333 307.333,151.5 305.5,152C 237.833,152.667 170.167,152.667 102.5,152C 100.951,150.786 99.7845,149.286 99,147.5C 98.5001,134.504 98.3334,121.504 98.5,108.5C 76.5,108.5 54.5,108.5 32.5,108.5C 32.5,230.833 32.5,353.167 32.5,475.5C 138.857,475.983 245.19,475.483 351.5,474C 365.519,469.98 374.019,460.813 377,446.5C 377.333,428.833 377.667,411.167 378,393.5C 382.667,386.833 387.333,386.833 392,393.5C 392.924,413.205 392.59,432.871 391,452.5C 385.316,472.183 372.483,484.35 352.5,489C 242.167,489.667 131.833,489.667 21.5,489C 20.5838,488.626 19.7504,488.126 19,487.5C 17.337,357.914 17.0037,228.247 18,98.5C 18.8333,96.3333 20.3333,94.8333 22.5,94C 47.8311,93.5 73.1645,93.3334 98.5,93.5C 98.3334,80.4957 98.5001,67.4957 99,54.5C 99.4652,53.0692 100.299,51.9025 101.5,51C 120.077,49.6919 138.743,49.0252 157.5,49C 166.467,32.5332 180.133,23.0332 198.5,20.5 Z"/></g>
<g><path style="opacity:1" fill="#b0d4f0" d="M 294.5,103.5 C 294.5,114.833 294.5,126.167 294.5,137.5C 234.167,137.5 173.833,137.5 113.5,137.5C 113.5,113.167 113.5,88.8333 113.5,64.5C 130.503,64.6666 147.503,64.4999 164.5,64C 169.11,57.96 173.61,51.7933 178,45.5C 188.066,36.038 199.899,32.8713 213.5,36C 226.512,40.3456 235.679,48.8456 241,61.5C 241.903,62.7014 243.069,63.5348 244.5,64C 261.497,64.4999 278.497,64.6666 295.5,64.5C 295.735,77.5255 295.401,90.5255 294.5,103.5 Z"/></g>
<g><path style="opacity:1" fill="#96c2e7" d="M 113.5,64.5 C 113.5,88.8333 113.5,113.167 113.5,137.5C 173.833,137.5 234.167,137.5 294.5,137.5C 294.5,126.167 294.5,114.833 294.5,103.5C 295.495,114.988 295.828,126.655 295.5,138.5C 234.5,138.5 173.5,138.5 112.5,138.5C 112.169,113.661 112.502,88.9944 113.5,64.5 Z"/></g>
<g><path style="opacity:0.969" fill="#5a99d1" d="M 432.5,180.5 C 434.989,180.298 437.323,180.798 439.5,182C 457.333,199.833 475.167,217.667 493,235.5C 493.79,238.634 493.457,241.634 492,244.5C 442.167,294.333 392.333,344.167 342.5,394C 315.242,403.864 287.909,413.53 260.5,423C 254.768,424.132 251.435,421.799 250.5,416C 260.136,388.091 269.97,360.258 280,332.5C 330.728,281.605 381.562,230.938 432.5,180.5 Z M 288.5,351.5 C 300.58,362.077 312.247,373.244 323.5,385C 305.83,391.353 288.163,397.353 270.5,403C 277.196,386.078 283.196,368.911 288.5,351.5 Z"/></g>
<g><path style="opacity:1" fill="#b0d4f0" d="M 434.5,198.5 C 448.186,211.686 461.686,225.019 475,238.5C 475.667,239.167 475.667,239.833 475,240.5C 429.5,286 384,331.5 338.5,377C 337.833,377.667 337.167,377.667 336.5,377C 323.167,363.667 309.833,350.333 296.5,337C 342.701,290.965 388.701,244.799 434.5,198.5 Z"/></g>
<g><path style="opacity:0.991" fill="#5a99d1" d="M 77.5,233.5 C 162.167,233.333 246.834,233.5 331.5,234C 335.696,236.981 336.529,240.814 334,245.5C 333.25,246.126 332.416,246.626 331.5,247C 246.833,247.667 162.167,247.667 77.5,247C 73.5548,242.503 73.5548,238.003 77.5,233.5 Z"/></g>
<g><path style="opacity:0.923" fill="#5999d1" d="M 78.5,313.5 C 136.501,313.333 194.501,313.5 252.5,314C 259.167,318.667 259.167,323.333 252.5,328C 194.5,328.667 136.5,328.667 78.5,328C 71.9022,323.129 71.9022,318.295 78.5,313.5 Z"/></g>
<g><path style="opacity:0.922" fill="#5998d1" d="M 80.5,393.5 C 96.1702,393.333 111.837,393.5 127.5,394C 131.496,394.836 133.496,397.336 133.5,401.5C 133.06,404.214 131.726,406.38 129.5,408C 112.5,408.667 95.5,408.667 78.5,408C 74.3041,405.019 73.4707,401.186 76,396.5C 77.4087,395.219 78.9087,394.219 80.5,393.5 Z"/></g>
<g><path style="opacity:0.926" fill="#5a98d1" d="M 165.5,393.5 C 182.837,393.333 200.17,393.5 217.5,394C 224.451,397.798 225.118,402.465 219.5,408C 200.833,408.667 182.167,408.667 163.5,408C 159.304,405.019 158.471,401.186 161,396.5C 162.409,395.219 163.909,394.219 165.5,393.5 Z"/></g>
</svg>
