<?xml version="1.0" encoding="UTF-8"?>
<!DOCTYPE svg PUBLIC "-//W3C//DTD SVG 1.1//EN" "http://www.w3.org/Graphics/SVG/1.1/DTD/svg11.dtd">
<svg xmlns="http://www.w3.org/2000/svg" version="1.1" width="225px" height="225px" style="shape-rendering:geometricPrecision; text-rendering:geometricPrecision; image-rendering:optimizeQuality; fill-rule:evenodd; clip-rule:evenodd" xmlns:xlink="http://www.w3.org/1999/xlink">
<g><path style="opacity:1" fill="#fcfcff" d="M -0.5,-0.5 C 13.1667,-0.5 26.8333,-0.5 40.5,-0.5C 29.3935,2.43371 21.8935,9.43371 18,20.5C 17.3333,81.1667 17.3333,141.833 18,202.5C 21.4592,214.128 28.9592,221.461 40.5,224.5C 26.8333,224.5 13.1667,224.5 -0.5,224.5C -0.5,149.5 -0.5,74.5 -0.5,-0.5 Z"/></g>
<g><path style="opacity:1" fill="#3058ff" d="M 40.5,-0.5 C 87.8333,-0.5 135.167,-0.5 182.5,-0.5C 194.172,1.99499 202.005,8.99499 206,20.5C 206.667,81.1667 206.667,141.833 206,202.5C 202.553,214.115 195.053,221.448 183.5,224.5C 135.833,224.5 88.1667,224.5 40.5,224.5C 28.9592,221.461 21.4592,214.128 18,202.5C 17.3333,141.833 17.3333,81.1667 18,20.5C 21.8935,9.43371 29.3935,2.43371 40.5,-0.5 Z"/></g>
<g><path style="opacity:1" fill="#fcfcff" d="M 182.5,-0.5 C 196.5,-0.5 210.5,-0.5 224.5,-0.5C 224.5,74.5 224.5,149.5 224.5,224.5C 210.833,224.5 197.167,224.5 183.5,224.5C 195.053,221.448 202.553,214.115 206,202.5C 206.667,141.833 206.667,81.1667 206,20.5C 202.005,8.99499 194.172,1.99499 182.5,-0.5 Z"/></g>
<g><path style="opacity:1" fill="#8bc4ff" d="M 41.5,13.5 C 88.5012,13.3333 135.501,13.5 182.5,14C 187.206,15.1045 190.373,17.9378 192,22.5C 192.5,28.8246 192.666,35.1579 192.5,41.5C 138.833,41.5 85.1667,41.5 31.5,41.5C 31.3338,35.1579 31.5005,28.8246 32,22.5C 33.8714,18.0064 37.0381,15.0064 41.5,13.5 Z"/></g>
<g><path style="opacity:1" fill="#d0e6ff" d="M 31.5,55.5 C 85.1667,55.5 138.833,55.5 192.5,55.5C 192.991,104.918 192.491,154.251 191,203.5C 188.784,207.027 185.617,209.194 181.5,210C 134.5,210.667 87.5,210.667 40.5,210C 37.2648,208.64 34.7648,206.473 33,203.5C 31.5095,154.251 31.0095,104.918 31.5,55.5 Z"/></g>
<g><path style="opacity:1" fill="#2f58ff" d="M 54.5,84.5 C 65.4903,82.9918 70.3236,87.6585 69,98.5C 66.0812,104.025 61.5812,105.858 55.5,104C 46.6487,97.9178 46.3154,91.4178 54.5,84.5 Z"/></g>
<g><path style="opacity:1" fill="#2d57ff" d="M 88.5,87.5 C 115.835,87.3334 143.169,87.5 170.5,88C 177.059,92.2451 177.059,96.5784 170.5,101C 143.167,101.667 115.833,101.667 88.5,101C 85.3171,99.9817 83.9838,97.815 84.5,94.5C 84.1967,91.1558 85.5301,88.8225 88.5,87.5 Z"/></g>
<g><path style="opacity:1" fill="#3058ff" d="M 55.5,119.5 C 65.9884,118.487 70.4884,123.154 69,133.5C 65.7231,139.109 60.8897,140.942 54.5,139C 46.1884,132.058 46.5217,125.558 55.5,119.5 Z"/></g>
<g><path style="opacity:1" fill="#2d57ff" d="M 88.5,122.5 C 115.835,122.333 143.169,122.5 170.5,123C 177.167,127.333 177.167,131.667 170.5,136C 143.167,136.667 115.833,136.667 88.5,136C 85.3171,134.982 83.9838,132.815 84.5,129.5C 84.1967,126.156 85.5301,123.822 88.5,122.5 Z"/></g>
<g><path style="opacity:1" fill="#3259ff" d="M 55.5,154.5 C 65.9884,153.487 70.4884,158.154 69,168.5C 64.9949,175.502 59.4949,177.002 52.5,173C 46.5279,165.666 47.5279,159.5 55.5,154.5 Z"/></g>
<g><path style="opacity:1" fill="#3059ff" d="M 88.5,157.5 C 115.835,157.333 143.169,157.5 170.5,158C 176.703,161.829 177.036,166.162 171.5,171C 143.5,171.667 115.5,171.667 87.5,171C 83.3662,166.119 83.6996,161.619 88.5,157.5 Z"/></g>
</svg>
