<?xml version="1.0" encoding="UTF-8"?>
<!DOCTYPE svg PUBLIC "-//W3C//DTD SVG 1.1//EN" "http://www.w3.org/Graphics/SVG/1.1/DTD/svg11.dtd">
<svg xmlns="http://www.w3.org/2000/svg" version="1.1" width="348px" height="348px" style="shape-rendering:geometricPrecision; text-rendering:geometricPrecision; image-rendering:optimizeQuality; fill-rule:evenodd; clip-rule:evenodd" xmlns:xlink="http://www.w3.org/1999/xlink">
<g><path style="opacity:1" fill="#0579fc" d="M 240.5,75.5 C 262.66,76.4974 284.994,76.8308 307.5,76.5C 307.667,164.501 307.5,252.501 307,340.5C 306.5,341 306,341.5 305.5,342C 218.581,343.661 131.581,343.995 44.5,343C 42.6763,342.34 41.343,341.173 40.5,339.5C 40.5,229.833 40.5,120.167 40.5,10.5C 40.8588,8.62901 41.8588,7.12901 43.5,6C 107.832,5.5 172.166,5.33334 236.5,5.5C 236.333,27.8358 236.5,50.1692 237,72.5C 237.422,74.4257 238.589,75.4257 240.5,75.5 Z"/></g>
<g><path style="opacity:1" fill="#157bfc" d="M 254.5,11.5 C 271.812,29.1459 289.145,46.8125 306.5,64.5C 299.197,65.4973 291.863,65.8306 284.5,65.5C 272.253,65.8218 260.086,65.4885 248,64.5C 247.167,45.1581 247.334,25.8247 248.5,6.5C 250.519,8.18973 252.519,9.85639 254.5,11.5 Z"/></g>
<g><path style="opacity:1" fill="#f2f2f2" d="M 254.5,-0.5 C 279.5,-0.5 304.5,-0.5 329.5,-0.5C 329.336,2.1873 329.503,4.85397 330,7.5C 331.167,6.33333 332.333,5.16667 333.5,4C 334.332,3.31232 334.998,3.47899 335.5,4.5C 332.195,7.11941 330.195,10.4527 329.5,14.5C 335.287,15.2693 339.787,13.2693 343,8.5C 342.805,10.745 341.638,12.5784 339.5,14C 341.134,14.4935 342.801,14.6602 344.5,14.5C 344.5,19.5 344.5,24.5 344.5,29.5C 339.983,28.6591 336.317,29.9925 333.5,33.5C 329.992,36.3166 328.659,39.9832 329.5,44.5C 331.199,44.6602 332.866,44.4935 334.5,44C 337.333,41.1667 340.167,38.3333 343,35.5C 343.333,37.0468 342.833,38.3801 341.5,39.5C 339.723,40.901 338.056,42.401 336.5,44C 339.146,44.4974 341.813,44.6641 344.5,44.5C 344.5,49.5 344.5,54.5 344.5,59.5C 331.878,58.2376 327.545,63.071 331.5,74C 335.333,70.1667 339.167,66.3333 343,62.5C 343.333,64.0468 342.833,65.3801 341.5,66.5C 338.984,69.1833 336.317,71.6833 333.5,74C 337.152,74.4986 340.818,74.6653 344.5,74.5C 341.715,81.1311 337.215,86.4644 331,90.5C 329.48,94.3749 329.146,98.3749 330,102.5C 333.5,99 337,95.5 340.5,92C 341.332,91.3123 341.998,91.479 342.5,92.5C 338.679,96.1553 335.012,99.9887 331.5,104C 333.333,104.167 335.167,104.333 337,104.5C 339.302,104.4 341.302,103.733 343,102.5C 344.737,108.082 344.904,113.749 343.5,119.5C 338.473,123.86 333.806,128.527 329.5,133.5C 334.802,135.532 339.302,134.532 343,130.5C 343.507,131.996 343.007,133.163 341.5,134C 342.448,134.483 343.448,134.649 344.5,134.5C 344.5,139.5 344.5,144.5 344.5,149.5C 342.801,149.34 341.134,149.506 339.5,150C 336.333,153.167 333.167,156.333 330,159.5C 329.506,161.134 329.34,162.801 329.5,164.5C 331.857,164.663 334.19,164.497 336.5,164C 338.017,162.315 339.684,160.815 341.5,159.5C 342.188,161.718 341.188,163.218 338.5,164C 340.473,164.495 342.473,164.662 344.5,164.5C 344.5,169.5 344.5,174.5 344.5,179.5C 341.351,179.211 338.351,179.711 335.5,181C 333.99,183.009 332.323,184.842 330.5,186.5C 329.52,189.086 329.187,191.753 329.5,194.5C 331.262,194.643 332.929,194.309 334.5,193.5C 337.516,190.651 340.35,187.651 343,184.5C 343.667,185.5 343.667,186.5 343,187.5C 340.833,189.667 338.667,191.833 336.5,194C 339.972,193.943 342.972,194.943 345.5,197C 344.536,201.066 344.203,205.233 344.5,209.5C 332.676,207.824 327.842,212.824 330,224.5C 333.985,221.016 337.818,217.349 341.5,213.5C 342.521,214.002 342.688,214.668 342,215.5C 339.167,218.333 336.333,221.167 333.5,224C 337.152,224.499 340.818,224.665 344.5,224.5C 344.666,229.511 344.499,234.511 344,239.5C 340.207,244.628 336.041,249.462 331.5,254C 334.833,254.667 338.167,254.667 341.5,254C 342,253.5 342.5,253 343,252.5C 344.062,256.637 344.895,260.804 345.5,265C 344.91,266.509 344.244,268.009 343.5,269.5C 338.167,273.5 333.5,278.167 329.5,283.5C 334.456,284.494 339.456,284.827 344.5,284.5C 344.5,289.5 344.5,294.5 344.5,299.5C 341.843,299.162 339.51,299.829 337.5,301.5C 334.902,304.055 332.402,306.721 330,309.5C 329.506,311.134 329.34,312.801 329.5,314.5C 331.857,314.663 334.19,314.497 336.5,314C 338.333,311.5 340.5,309.333 343,307.5C 342.454,310.093 340.954,312.26 338.5,314C 340.473,314.495 342.473,314.662 344.5,314.5C 344.5,319.5 344.5,324.5 344.5,329.5C 345.5,329.5 346.5,329.5 347.5,329.5C 347.5,335.5 347.5,341.5 347.5,347.5C 231.5,347.5 115.5,347.5 -0.5,347.5C -0.5,331.5 -0.5,315.5 -0.5,299.5C 3.18174,299.335 6.84841,299.501 10.5,300C 8.5,302 6.5,304 4.5,306C 5,306.5 5.5,307 6,307.5C 8.33333,304.5 11,301.833 14,299.5C 14.3333,294.5 14.6667,289.5 15,284.5C 20.3156,280.351 25.1489,275.685 29.5,270.5C 32.7041,269.796 35.8708,269.13 39,268.5C 39.2515,273.638 39.4182,278.971 39.5,284.5C 36.1667,284.5 32.8333,284.5 29.5,284.5C 29.3343,288.846 29.501,293.179 30,297.5C 33.3702,294.465 36.3702,291.132 39,287.5C 39.1667,289.333 39.3333,291.167 39.5,293C 39.3996,295.302 38.733,297.302 37.5,299C 38.7994,303.246 39.4661,307.746 39.5,312.5C 39.1667,316.833 38.8333,321.167 38.5,325.5C 34.1648,328.145 34.4982,329.478 39.5,329.5C 39.1872,333.042 39.5206,336.375 40.5,339.5C 41.343,341.173 42.6763,342.34 44.5,343C 131.581,343.995 218.581,343.661 305.5,342C 306,341.5 306.5,341 307,340.5C 307.5,252.501 307.667,164.501 307.5,76.5C 284.994,76.8308 262.66,76.4974 240.5,75.5C 252.171,75.6665 263.838,75.4999 275.5,75C 279.402,72.6003 282.402,69.4336 284.5,65.5C 291.863,65.8306 299.197,65.4973 306.5,64.5C 289.145,46.8125 271.812,29.1459 254.5,11.5C 254.663,9.14316 254.497,6.80982 254,4.5C 249.741,6.94951 249.575,6.61618 253.5,3.5C 254.429,2.31116 254.762,0.977822 254.5,-0.5 Z"/></g>
<g><path style="opacity:1" fill="#eaebeb" d="M 40.5,10.5 C 40.5,120.167 40.5,229.833 40.5,339.5C 39.5206,336.375 39.1872,333.042 39.5,329.5C 34.4982,329.478 34.1648,328.145 38.5,325.5C 38.8333,321.167 39.1667,316.833 39.5,312.5C 39.4661,307.746 38.7994,303.246 37.5,299C 38.733,297.302 39.3996,295.302 39.5,293C 39.3333,291.167 39.1667,289.333 39,287.5C 36.3702,291.132 33.3702,294.465 30,297.5C 29.501,293.179 29.3343,288.846 29.5,284.5C 32.8333,284.5 36.1667,284.5 39.5,284.5C 39.4182,278.971 39.2515,273.638 39,268.5C 35.8708,269.13 32.7041,269.796 29.5,270.5C 25.1489,275.685 20.3156,280.351 15,284.5C 14.6667,289.5 14.3333,294.5 14,299.5C 11,301.833 8.33333,304.5 6,307.5C 5.5,307 5,306.5 4.5,306C 6.5,304 8.5,302 10.5,300C 6.84841,299.501 3.18174,299.335 -0.5,299.5C -0.5,294.5 -0.5,289.5 -0.5,284.5C 3.84611,284.666 8.17944,284.499 12.5,284C 21.0855,274.816 29.9189,265.983 39,257.5C 39.4995,251.509 39.6662,245.509 39.5,239.5C 36.1501,239.665 32.8168,239.498 29.5,239C 32.3878,236.069 35.3878,233.235 38.5,230.5C 39.497,223.532 39.8303,216.532 39.5,209.5C 37.1432,209.663 34.8098,209.497 32.5,209C 34.3501,206.982 36.3501,205.149 38.5,203.5C 39.4977,195.528 39.831,187.528 39.5,179.5C 34.5786,179.865 34.2453,178.865 38.5,176.5C 39.666,163.846 39.8326,151.18 39,138.5C 35.6514,142.016 32.1514,145.349 28.5,148.5C 29.2435,151.443 29.7435,154.443 30,157.5C 30.5,158 31,158.5 31.5,159C 29.8446,160.444 29.178,162.278 29.5,164.5C 28.1266,164.343 26.7932,164.51 25.5,165C 22,168.5 18.5,172 15,175.5C 14.51,176.793 14.3433,178.127 14.5,179.5C 12.4727,179.662 10.4727,179.495 8.5,179C 13.2719,175.141 17.9385,170.474 22.5,165C 19.1667,164.333 15.8333,164.333 12.5,165C 10,168.167 7.16667,171 4,173.5C 3.24956,172.874 2.41623,172.374 1.5,172C 5.34054,167.827 9.50721,163.993 14,160.5C 14.4986,156.848 14.6653,153.182 14.5,149.5C 26.5,151.5 31.5,146.5 29.5,134.5C 32.8333,134.5 36.1667,134.5 39.5,134.5C 39.666,129.156 39.4994,123.823 39,118.5C 36.2595,119.282 33.4262,119.782 30.5,120C 21.3037,129.53 11.8037,138.697 2,147.5C 1.83333,147 1.66667,146.5 1.5,146C 4.96857,141.364 8.96857,137.197 13.5,133.5C 16.5655,120.313 14.2322,119.147 6.5,130C 5.5,130.667 4.5,130.667 3.5,130C 6.80629,126.694 10.1396,123.36 13.5,120C 9.83333,119.667 6.16667,119.333 2.5,119C 2.5,118 2.5,117 2.5,116C 6.65878,112.841 10.4921,109.341 14,105.5C 14.3333,109.833 14.6667,114.167 15,118.5C 19.5,114 24,109.5 28.5,105C 24.1667,104.667 19.8333,104.333 15.5,104C 20,99.5 24.5,95 29,90.5C 29.3333,94.8333 29.6667,99.1667 30,103.5C 32.6667,100.833 35.3333,98.1667 38,95.5C 38.6667,96.5 38.6667,97.5 38,98.5C 35.8333,100.333 33.6667,102.167 31.5,104C 34.095,104.226 36.595,104.726 39,105.5C 39.4994,100.177 39.666,94.8437 39.5,89.5C 36.4816,89.6646 33.4816,89.498 30.5,89C 33.0159,86.3167 35.6826,83.8167 38.5,81.5C 39.6649,73.5208 39.8316,65.5208 39,57.5C 37.1917,59.3959 35.025,59.8959 32.5,59C 34.7594,57.2854 36.9261,55.4521 39,53.5C 39.4997,45.5069 39.6664,37.5069 39.5,29.5C 34.4676,29.6677 34.3009,28.6677 39,26.5C 39.6667,22.8333 39.6667,19.1667 39,15.5C 30.691,23.4769 22.691,31.8103 15,40.5C 14.5014,36.8484 14.3347,33.1817 14.5,29.5C 25.0557,30.0551 30.0557,25.0551 29.5,14.5C 32.8788,14.3218 36.0454,14.3218 39,14.5C 39.21,12.9419 39.71,11.6085 40.5,10.5 Z"/></g>
<g><path style="opacity:1" fill="#f0f2f4" d="M 117.5,108.5 C 167.168,108.333 216.834,108.5 266.5,109C 269.277,112.575 268.944,115.908 265.5,119C 216.5,119.667 167.5,119.667 118.5,119C 114.935,115.784 114.602,112.284 117.5,108.5 Z"/></g>
<g><path style="opacity:1" fill="#eff0f1" d="M 97.5,92.5 C 104,91.4987 106.5,94.1653 105,100.5C 98.2926,112.083 91.4593,123.583 84.5,135C 82.8333,135.667 81.1667,135.667 79.5,135C 74.6667,130.167 69.8333,125.333 65,120.5C 64.1667,114.667 66.6667,112.167 72.5,113C 75.0159,115.683 77.6826,118.183 80.5,120.5C 86.1748,111.098 91.8415,101.765 97.5,92.5 Z"/></g>
<g><path style="opacity:1" fill="#fafafa" d="M 329.5,-0.5 C 335.5,-0.5 341.5,-0.5 347.5,-0.5C 347.5,109.5 347.5,219.5 347.5,329.5C 346.5,329.5 345.5,329.5 344.5,329.5C 344.5,324.5 344.5,319.5 344.5,314.5C 342.473,314.662 340.473,314.495 338.5,314C 340.954,312.26 342.454,310.093 343,307.5C 340.5,309.333 338.333,311.5 336.5,314C 334.19,314.497 331.857,314.663 329.5,314.5C 329.34,312.801 329.506,311.134 330,309.5C 332.402,306.721 334.902,304.055 337.5,301.5C 339.51,299.829 341.843,299.162 344.5,299.5C 344.5,294.5 344.5,289.5 344.5,284.5C 339.456,284.827 334.456,284.494 329.5,283.5C 333.5,278.167 338.167,273.5 343.5,269.5C 344.244,268.009 344.91,266.509 345.5,265C 344.895,260.804 344.062,256.637 343,252.5C 342.5,253 342,253.5 341.5,254C 338.167,254.667 334.833,254.667 331.5,254C 336.041,249.462 340.207,244.628 344,239.5C 344.499,234.511 344.666,229.511 344.5,224.5C 340.818,224.665 337.152,224.499 333.5,224C 336.333,221.167 339.167,218.333 342,215.5C 342.688,214.668 342.521,214.002 341.5,213.5C 337.818,217.349 333.985,221.016 330,224.5C 327.842,212.824 332.676,207.824 344.5,209.5C 344.203,205.233 344.536,201.066 345.5,197C 342.972,194.943 339.972,193.943 336.5,194C 338.667,191.833 340.833,189.667 343,187.5C 343.667,186.5 343.667,185.5 343,184.5C 340.35,187.651 337.516,190.651 334.5,193.5C 332.929,194.309 331.262,194.643 329.5,194.5C 329.187,191.753 329.52,189.086 330.5,186.5C 332.323,184.842 333.99,183.009 335.5,181C 338.351,179.711 341.351,179.211 344.5,179.5C 344.5,174.5 344.5,169.5 344.5,164.5C 342.473,164.662 340.473,164.495 338.5,164C 341.188,163.218 342.188,161.718 341.5,159.5C 339.684,160.815 338.017,162.315 336.5,164C 334.19,164.497 331.857,164.663 329.5,164.5C 329.34,162.801 329.506,161.134 330,159.5C 333.167,156.333 336.333,153.167 339.5,150C 341.134,149.506 342.801,149.34 344.5,149.5C 344.5,144.5 344.5,139.5 344.5,134.5C 343.448,134.649 342.448,134.483 341.5,134C 343.007,133.163 343.507,131.996 343,130.5C 339.302,134.532 334.802,135.532 329.5,133.5C 333.806,128.527 338.473,123.86 343.5,119.5C 344.904,113.749 344.737,108.082 343,102.5C 341.302,103.733 339.302,104.4 337,104.5C 335.167,104.333 333.333,104.167 331.5,104C 335.012,99.9887 338.679,96.1553 342.5,92.5C 341.998,91.479 341.332,91.3123 340.5,92C 337,95.5 333.5,99 330,102.5C 329.146,98.3749 329.48,94.3749 331,90.5C 337.215,86.4644 341.715,81.1311 344.5,74.5C 340.818,74.6653 337.152,74.4986 333.5,74C 336.317,71.6833 338.984,69.1833 341.5,66.5C 342.833,65.3801 343.333,64.0468 343,62.5C 339.167,66.3333 335.333,70.1667 331.5,74C 327.545,63.071 331.878,58.2376 344.5,59.5C 344.5,54.5 344.5,49.5 344.5,44.5C 341.813,44.6641 339.146,44.4974 336.5,44C 338.056,42.401 339.723,40.901 341.5,39.5C 342.833,38.3801 343.333,37.0468 343,35.5C 340.167,38.3333 337.333,41.1667 334.5,44C 332.866,44.4935 331.199,44.6602 329.5,44.5C 328.659,39.9832 329.992,36.3166 333.5,33.5C 336.317,29.9925 339.983,28.6591 344.5,29.5C 344.5,24.5 344.5,19.5 344.5,14.5C 342.801,14.6602 341.134,14.4935 339.5,14C 341.638,12.5784 342.805,10.745 343,8.5C 339.787,13.2693 335.287,15.2693 329.5,14.5C 330.195,10.4527 332.195,7.11941 335.5,4.5C 334.998,3.47899 334.332,3.31232 333.5,4C 332.333,5.16667 331.167,6.33333 330,7.5C 329.503,4.85397 329.336,2.1873 329.5,-0.5 Z"/></g>
<g><path style="opacity:1" fill="#f1f2f2" d="M 118.5,162.5 C 167.501,162.333 216.501,162.5 265.5,163C 269.01,166.048 269.343,169.381 266.5,173C 216.833,173.667 167.167,173.667 117.5,173C 114.685,169.19 115.019,165.69 118.5,162.5 Z"/></g>
<g><path style="opacity:1" fill="#f0f1f3" d="M 97.5,146.5 C 103.82,146.32 106.32,149.32 105,155.5C 98.5288,166.953 91.6955,178.12 84.5,189C 82.5,189.667 80.5,189.667 78.5,189C 74,184.5 69.5,180 65,175.5C 64.3017,169.204 67.1351,166.704 73.5,168C 75.727,170.935 78.3936,172.935 81.5,174C 86.9849,164.856 92.3182,155.689 97.5,146.5 Z"/></g>
<g><path style="opacity:1" fill="#f5f5f5" d="M -0.5,-0.5 C 84.5,-0.5 169.5,-0.5 254.5,-0.5C 254.762,0.977822 254.429,2.31116 253.5,3.5C 249.575,6.61618 249.741,6.94951 254,4.5C 254.497,6.80982 254.663,9.14316 254.5,11.5C 252.519,9.85639 250.519,8.18973 248.5,6.5C 247.334,25.8247 247.167,45.1581 248,64.5C 260.086,65.4885 272.253,65.8218 284.5,65.5C 282.402,69.4336 279.402,72.6003 275.5,75C 263.838,75.4999 252.171,75.6665 240.5,75.5C 238.589,75.4257 237.422,74.4257 237,72.5C 236.5,50.1692 236.333,27.8358 236.5,5.5C 172.166,5.33334 107.832,5.5 43.5,6C 41.8588,7.12901 40.8588,8.62901 40.5,10.5C 39.71,11.6085 39.21,12.9419 39,14.5C 36.0454,14.3218 32.8788,14.3218 29.5,14.5C 30.0557,25.0551 25.0557,30.0551 14.5,29.5C 14.3347,33.1817 14.5014,36.8484 15,40.5C 22.691,31.8103 30.691,23.4769 39,15.5C 39.6667,19.1667 39.6667,22.8333 39,26.5C 34.3009,28.6677 34.4676,29.6677 39.5,29.5C 39.6664,37.5069 39.4997,45.5069 39,53.5C 36.9261,55.4521 34.7594,57.2854 32.5,59C 35.025,59.8959 37.1917,59.3959 39,57.5C 39.8316,65.5208 39.6649,73.5208 38.5,81.5C 35.6826,83.8167 33.0159,86.3167 30.5,89C 33.4816,89.498 36.4816,89.6646 39.5,89.5C 39.666,94.8437 39.4994,100.177 39,105.5C 36.595,104.726 34.095,104.226 31.5,104C 33.6667,102.167 35.8333,100.333 38,98.5C 38.6667,97.5 38.6667,96.5 38,95.5C 35.3333,98.1667 32.6667,100.833 30,103.5C 29.6667,99.1667 29.3333,94.8333 29,90.5C 24.5,95 20,99.5 15.5,104C 19.8333,104.333 24.1667,104.667 28.5,105C 24,109.5 19.5,114 15,118.5C 14.6667,114.167 14.3333,109.833 14,105.5C 10.4921,109.341 6.65878,112.841 2.5,116C 2.5,117 2.5,118 2.5,119C 6.16667,119.333 9.83333,119.667 13.5,120C 10.1396,123.36 6.80629,126.694 3.5,130C 4.5,130.667 5.5,130.667 6.5,130C 14.2322,119.147 16.5655,120.313 13.5,133.5C 8.96857,137.197 4.96857,141.364 1.5,146C 1.66667,146.5 1.83333,147 2,147.5C 11.8037,138.697 21.3037,129.53 30.5,120C 33.4262,119.782 36.2595,119.282 39,118.5C 39.4994,123.823 39.666,129.156 39.5,134.5C 36.1667,134.5 32.8333,134.5 29.5,134.5C 31.5,146.5 26.5,151.5 14.5,149.5C 14.6653,153.182 14.4986,156.848 14,160.5C 9.50721,163.993 5.34054,167.827 1.5,172C 2.41623,172.374 3.24956,172.874 4,173.5C 7.16667,171 10,168.167 12.5,165C 15.8333,164.333 19.1667,164.333 22.5,165C 17.9385,170.474 13.2719,175.141 8.5,179C 10.4727,179.495 12.4727,179.662 14.5,179.5C 14.3433,178.127 14.51,176.793 15,175.5C 18.5,172 22,168.5 25.5,165C 26.7932,164.51 28.1266,164.343 29.5,164.5C 29.178,162.278 29.8446,160.444 31.5,159C 31,158.5 30.5,158 30,157.5C 29.7435,154.443 29.2435,151.443 28.5,148.5C 32.1514,145.349 35.6514,142.016 39,138.5C 39.8326,151.18 39.666,163.846 38.5,176.5C 34.2453,178.865 34.5786,179.865 39.5,179.5C 39.831,187.528 39.4977,195.528 38.5,203.5C 36.3501,205.149 34.3501,206.982 32.5,209C 34.8098,209.497 37.1432,209.663 39.5,209.5C 39.8303,216.532 39.497,223.532 38.5,230.5C 35.3878,233.235 32.3878,236.069 29.5,239C 32.8168,239.498 36.1501,239.665 39.5,239.5C 39.6662,245.509 39.4995,251.509 39,257.5C 29.9189,265.983 21.0855,274.816 12.5,284C 8.17944,284.499 3.84611,284.666 -0.5,284.5C -0.5,189.5 -0.5,94.5 -0.5,-0.5 Z"/></g>
<g><path style="opacity:1" fill="#f3f4f6" d="M 97.5,201.5 C 104.787,200.931 107.287,203.931 105,210.5C 98.5431,221.917 91.7098,233.084 84.5,244C 82.5,244.667 80.5,244.667 78.5,244C 74.3333,239.833 70.1667,235.667 66,231.5C 63.8461,227.942 64.3461,224.775 67.5,222C 68.8333,221.333 70.1667,221.333 71.5,222C 74.646,224.312 77.646,226.812 80.5,229.5C 86.1779,220.139 91.8445,210.806 97.5,201.5 Z"/></g>
<g><path style="opacity:1" fill="#f4f4f4" d="M 117.5,217.5 C 166.834,217.333 216.168,217.5 265.5,218C 268.287,220.167 269.12,223.001 268,226.5C 267.25,227.126 266.416,227.626 265.5,228C 216.5,228.667 167.5,228.667 118.5,228C 114.854,224.907 114.521,221.407 117.5,217.5 Z"/></g>
<g><path style="opacity:1" fill="#f1f2f3" d="M 117.5,272.5 C 167.168,272.333 216.834,272.5 266.5,273C 269.122,276.13 269.122,279.297 266.5,282.5C 217.503,283.667 168.503,283.833 119.5,283C 115.018,280.278 114.351,276.778 117.5,272.5 Z"/></g>
<g><path style="opacity:1" fill="#f5f6f6" d="M 97.5,256.5 C 103.337,255.518 106.17,257.851 106,263.5C 99.414,274.337 93.0806,285.337 87,296.5C 84.9973,298.922 82.4973,299.755 79.5,299C 74.6667,294.167 69.8333,289.333 65,284.5C 64.1667,278.667 66.6667,276.167 72.5,277C 75.0159,279.683 77.6826,282.183 80.5,284.5C 86.1872,275.116 91.8539,265.782 97.5,256.5 Z"/></g>
</svg>
