<?xml version="1.0" encoding="UTF-8"?>
<!DOCTYPE svg PUBLIC "-//W3C//DTD SVG 1.1//EN" "http://www.w3.org/Graphics/SVG/1.1/DTD/svg11.dtd">
<svg xmlns="http://www.w3.org/2000/svg" version="1.1" width="64px" height="64px" style="shape-rendering:geometricPrecision; text-rendering:geometricPrecision; image-rendering:optimizeQuality; fill-rule:evenodd; clip-rule:evenodd" xmlns:xlink="http://www.w3.org/1999/xlink">
<g><path style="opacity:0.789" fill="#248ce7" d="M 53.5,10.5 C 53.5,9.83333 53.1667,9.5 52.5,9.5C 51.1421,4.19117 53.1421,2.19117 58.5,3.5C 61.3511,6.95856 60.6844,9.62523 56.5,11.5C 55.5832,10.8728 54.5832,10.5394 53.5,10.5 Z"/></g>
<g><path style="opacity:0.891" fill="#228ae5" d="M 7.5,5.5 C 10.1667,5.5 12.8333,5.5 15.5,5.5C 15.6666,21.8367 15.4999,38.1701 15,54.5C 13.4791,60.4336 11.4791,60.7669 9,55.5C 8.09604,60.4608 5.7627,61.4608 2,58.5C 1.27969,56.8876 1.44636,55.3876 2.5,54C 4.76115,53.7605 6.76115,53.5938 8.5,53.5C 7.56716,49.5705 7.23383,45.5705 7.5,41.5C 2.16667,40.5 2.16667,39.5 7.5,38.5C 7.5,27.5 7.5,16.5 7.5,5.5 Z"/></g>
<g><path style="opacity:0.809" fill="#218ae5" d="M 52.5,9.5 C 53.1667,9.5 53.5,9.83333 53.5,10.5C 54.6363,26.4557 54.803,42.4557 54,58.5C 41.9092,59.6544 29.7425,59.8211 17.5,59C 16.5077,41.2434 16.1744,23.4101 16.5,5.5C 27.1719,5.3335 37.8385,5.50016 48.5,6C 49.7051,7.37561 51.0384,8.54227 52.5,9.5 Z M 19.5,8.5 C 27.8333,8.5 36.1667,8.5 44.5,8.5C 44.5,10.5 44.5,12.5 44.5,14.5C 46.5,14.5 48.5,14.5 50.5,14.5C 50.5,28.1667 50.5,41.8333 50.5,55.5C 40.1667,55.5 29.8333,55.5 19.5,55.5C 19.5,39.8333 19.5,24.1667 19.5,8.5 Z M 26.5,13.5 C 30.35,13.7007 31.35,15.5341 29.5,19C 24.6756,19.1833 23.6756,17.3499 26.5,13.5 Z"/></g>
<g><path style="opacity:0.615" fill="#2a92e9" d="M 2.5,10.5 C 3.97782,10.238 5.31116,10.5713 6.5,11.5C 5.67975,13.1112 4.34642,13.7778 2.5,13.5C 2.5,12.5 2.5,11.5 2.5,10.5 Z"/></g>
<g><path style="opacity:0.801" fill="#228be6" d="M 24.5,10.5 C 30.6427,8.98992 33.976,11.3233 34.5,17.5C 37.7216,17.1081 40.7216,17.6081 43.5,19C 40.4444,20.7761 37.2778,20.9428 34,19.5C 32.1335,21.8082 31.1335,24.4749 31,27.5C 28.3676,30.1924 26.0342,29.859 24,26.5C 23.5371,23.1641 22.7037,19.9975 21.5,17C 21.3199,14.1979 22.3199,12.0313 24.5,10.5 Z M 26.5,13.5 C 23.6756,17.3499 24.6756,19.1833 29.5,19C 31.35,15.5341 30.35,13.7007 26.5,13.5 Z"/></g>
<g><path style="opacity:0.764" fill="#228be6" d="M 34.5,21.5 C 37.1873,21.3359 39.854,21.5026 42.5,22C 43.8333,22.6667 43.8333,23.3333 42.5,24C 44.1341,24.4935 45.8008,24.6602 47.5,24.5C 47.5,26.8333 47.5,29.1667 47.5,31.5C 42.1667,31.5 36.8333,31.5 31.5,31.5C 31.5,30.5 31.5,29.5 31.5,28.5C 33.1092,28.9059 34.4425,28.9059 35.5,28.5C 35.6907,26.1958 35.3573,23.8625 34.5,21.5 Z"/></g>
<g><path style="opacity:0.796" fill="#2688e8" d="M 56.5,29.5 C 59.8606,30.2032 60.1939,31.5365 57.5,33.5C 55.3576,32.5629 55.0243,31.2296 56.5,29.5 Z"/></g>
<g><path style="opacity:0.752" fill="#228ce6" d="M 31.5,32.5 C 36.8333,32.5 42.1667,32.5 47.5,32.5C 46.1667,34.8333 46.1667,37.1667 47.5,39.5C 41.9997,39.2499 36.6664,39.2499 31.5,39.5C 32.8333,37.1667 32.8333,34.8333 31.5,32.5 Z"/></g>
<g><path style="opacity:0.795" fill="#228be6" d="M 21.5,47.5 C 29.8333,47.5 38.1667,47.5 46.5,47.5C 46.5,48.5 46.5,49.5 46.5,50.5C 43.8127,50.3359 41.146,50.5026 38.5,51C 39.8213,52.5445 39.4879,53.7112 37.5,54.5C 32.2878,54.3275 26.9545,54.3275 21.5,54.5C 21.5,52.1667 21.5,49.8333 21.5,47.5 Z"/></g>
<g><path style="opacity:0.613" fill="#228be8" d="M 56.5,50.5 C 59.8606,51.2032 60.1939,52.5365 57.5,54.5C 55.3576,53.5629 55.0243,52.2296 56.5,50.5 Z"/></g>
</svg>
