<?xml version="1.0" encoding="UTF-8"?>
<!DOCTYPE svg PUBLIC "-//W3C//DTD SVG 1.1//EN" "http://www.w3.org/Graphics/SVG/1.1/DTD/svg11.dtd">
<svg xmlns="http://www.w3.org/2000/svg" version="1.1" width="225px" height="225px" style="shape-rendering:geometricPrecision; text-rendering:geometricPrecision; image-rendering:optimizeQuality; fill-rule:evenodd; clip-rule:evenodd" xmlns:xlink="http://www.w3.org/1999/xlink">
<g><path style="opacity:1" fill="#fefefe" d="M -0.5,-0.5 C 74.5,-0.5 149.5,-0.5 224.5,-0.5C 224.5,74.5 224.5,149.5 224.5,224.5C 149.5,224.5 74.5,224.5 -0.5,224.5C -0.5,149.5 -0.5,74.5 -0.5,-0.5 Z"/></g>
<g><path style="opacity:1" fill="#040506" d="M 73.5,6.5 C 82.5062,6.33356 91.5062,6.50023 100.5,7C 103.576,7.91099 105.909,9.74432 107.5,12.5C 113.194,13.2066 118.861,14.04 124.5,15C 126.019,16.3513 127.352,17.8513 128.5,19.5C 138.817,20.3323 149.151,20.8323 159.5,21C 163.896,21.7297 166.73,24.2297 168,28.5C 168.5,37.8274 168.666,47.1607 168.5,56.5C 184.997,65.4722 201.164,75.1389 217,85.5C 217.653,118.709 203.486,143.209 174.5,159C 172.564,159.813 170.564,160.313 168.5,160.5C 168.667,176.837 168.5,193.17 168,209.5C 166.73,213.77 163.896,216.27 159.5,217C 110.833,217.667 62.1667,217.667 13.5,217C 10.2716,215.437 8.10491,212.937 7,209.5C 6.33333,149.167 6.33333,88.8333 7,28.5C 8.07744,25.087 10.2441,22.587 13.5,21C 24.5151,20.8324 35.5151,20.3324 46.5,19.5C 48.0243,17.1421 50.0243,15.3088 52.5,14C 57.5329,13.829 62.5329,13.329 67.5,12.5C 69.215,10.1182 71.215,8.11825 73.5,6.5 Z"/></g>
<g><path style="opacity:1" fill="#6dd1ef" d="M 74.5,13.5 C 82.84,13.3336 91.1733,13.5003 99.5,14C 100.833,16 102.167,18 103.5,20C 109.167,20.3333 114.833,20.6667 120.5,21C 121,21.5 121.5,22 122,22.5C 122.5,28.8246 122.666,35.1579 122.5,41.5C 99.1667,41.5 75.8333,41.5 52.5,41.5C 52.3337,34.825 52.5004,28.1583 53,21.5C 59.0851,20.6883 65.2518,20.1883 71.5,20C 73.0223,18.0838 74.0223,15.9171 74.5,13.5 Z"/></g>
<g><path style="opacity:1" fill="#3397e8" d="M 153.5,201.5 C 154.167,186.167 154.833,170.833 155.5,155.5C 157.386,156.361 159.22,157.361 161,158.5C 161.667,175.167 161.667,191.833 161,208.5C 160.5,209 160,209.5 159.5,210C 111.5,210.667 63.5,210.667 15.5,210C 15,209.5 14.5,209 14,208.5C 13.3333,148.833 13.3333,89.1667 14,29.5C 14.5,29 15,28.5 15.5,28C 25.4944,27.5002 35.4944,27.3335 45.5,27.5C 45.5,29.8333 45.5,32.1667 45.5,34.5C 37.8261,34.3336 30.1594,34.5003 22.5,35C 22,35.5 21.5,36 21,36.5C 20.3333,91.5 20.3333,146.5 21,201.5C 21.5,202 22,202.5 22.5,203C 65.8333,203.667 109.167,203.667 152.5,203C 153.056,202.617 153.389,202.117 153.5,201.5 Z"/></g>
<g><path style="opacity:1" fill="#3295e5" d="M 129.5,27.5 C 139.506,27.3335 149.506,27.5002 159.5,28C 160,28.5 160.5,29 161,29.5C 161.667,39.5 161.667,49.5 161,59.5C 159,60.8333 157,62.1667 155,63.5C 154.667,54.5 154.333,45.5 154,36.5C 153.5,36 153,35.5 152.5,35C 144.841,34.5003 137.174,34.3336 129.5,34.5C 129.5,32.1667 129.5,29.8333 129.5,27.5 Z"/></g>
<g><path style="opacity:1" fill="#e3e8ec" d="M 36.5,76.5 C 67.8333,77.1667 99.1667,77.8333 130.5,78.5C 127.528,80.3222 124.528,82.1555 121.5,84C 103.5,84.3333 85.5,84.6667 67.5,85C 66.0198,87.2345 66.3531,89.0679 68.5,90.5C 84.9916,91.4965 101.658,91.8298 118.5,91.5C 118.263,92.791 118.596,93.791 119.5,94.5C 119.5,95.8333 119.5,97.1667 119.5,98.5C 102.163,98.3334 84.8301,98.5001 67.5,99C 66.1667,100.667 66.1667,102.333 67.5,104C 85.1667,104.333 102.833,104.667 120.5,105C 121.406,106.699 121.739,108.533 121.5,110.5C 103.833,111.167 86.1667,111.833 68.5,112.5C 66.3531,113.932 66.0198,115.765 67.5,118C 86.5,118.333 105.5,118.667 124.5,119C 125.464,120.725 126.131,122.559 126.5,124.5C 107.167,125.167 87.8333,125.833 68.5,126.5C 66.3531,127.932 66.0198,129.765 67.5,132C 89.1744,132.167 110.841,132.667 132.5,133.5C 133.26,135.36 134.26,137.027 135.5,138.5C 113.167,139.167 90.8333,139.833 68.5,140.5C 66.3531,141.932 66.0198,143.765 67.5,146C 79.5,146.167 91.5,146.333 103.5,146.5C 115.989,146.48 128.322,145.814 140.5,144.5C 142.571,146.185 144.571,147.852 146.5,149.5C 146.5,164.833 146.5,180.167 146.5,195.5C 107.167,195.5 67.8333,195.5 28.5,195.5C 28.5,144.5 28.5,93.5 28.5,42.5C 33.8333,42.5 39.1667,42.5 44.5,42.5C 44.2322,44.099 44.5655,45.4324 45.5,46.5C 45.6107,47.1174 45.944,47.6174 46.5,48C 73.5,48.6667 100.5,48.6667 127.5,48C 129.229,46.2111 129.896,44.0444 129.5,41.5C 135.5,41.5 141.5,41.5 147.5,41.5C 147.832,50.5246 147.498,59.5246 146.5,68.5C 144.5,69.8333 142.5,71.1667 140.5,72.5C 139.713,71.7579 139.047,70.9246 138.5,70C 104.5,69.3333 70.5,69.3333 36.5,70C 33.9387,72.1559 33.9387,74.3226 36.5,76.5 Z"/></g>
<g><path style="opacity:1" fill="#101011" d="M 36.5,55.5 C 70.5016,55.3333 104.502,55.5 138.5,56C 139.833,58 139.833,60 138.5,62C 104.5,62.6667 70.5,62.6667 36.5,62C 33.9387,59.8441 33.9387,57.6774 36.5,55.5 Z"/></g>
<g><path style="opacity:1" fill="#6acbe8" d="M 166.5,63.5 C 168.308,63.4914 169.975,63.9914 171.5,65C 183.999,73.084 196.666,80.9173 209.5,88.5C 210.315,119.541 196.481,141.207 168,153.5C 142.517,142.398 128.683,122.898 126.5,95C 126.53,92.5759 126.863,90.2426 127.5,88C 140.901,80.3088 153.901,72.1421 166.5,63.5 Z"/></g>
<g><path style="opacity:1" fill="#050707" d="M 166.5,72.5 C 167.873,72.3433 169.207,72.51 170.5,73C 180.666,79.5842 191,85.9176 201.5,92C 202.137,117.227 190.97,135.06 168,145.5C 153.654,139.486 143.654,129.153 138,114.5C 136.108,108.43 134.608,102.264 133.5,96C 133.439,94.2894 134.106,92.956 135.5,92C 145.898,85.4752 156.231,78.9752 166.5,72.5 Z"/></g>
<g><path style="opacity:1" fill="#b6babd" d="M 36.5,76.5 C 68.5017,76.3334 100.502,76.5 132.5,77C 131.956,77.7172 131.289,78.2172 130.5,78.5C 99.1667,77.8333 67.8333,77.1667 36.5,76.5 Z"/></g>
<g><path style="opacity:1" fill="#e6ebef" d="M 166.5,80.5 C 167.873,80.3433 169.207,80.51 170.5,81C 178,85.9178 185.667,90.5845 193.5,95C 194.944,96.126 195.61,97.626 195.5,99.5C 192.656,116.884 183.656,129.884 168.5,138.5C 151.229,129.433 142.229,115.267 141.5,96C 150.006,90.9702 158.339,85.8035 166.5,80.5 Z"/></g>
<g><path style="opacity:1" fill="#060607" d="M 39.5,84.5 C 45.8421,84.3338 52.1754,84.5005 58.5,85C 59.6406,90.7504 59.8072,96.5837 59,102.5C 58.5,103 58,103.5 57.5,104C 51.5,104.667 45.5,104.667 39.5,104C 38.1852,97.5003 38.1852,91.0003 39.5,84.5 Z"/></g>
<g><path style="opacity:1" fill="#a4a8ab" d="M 68.5,90.5 C 85.5,90.5 102.5,90.5 119.5,90.5C 119.5,91.8333 119.5,93.1667 119.5,94.5C 118.596,93.791 118.263,92.791 118.5,91.5C 101.658,91.8298 84.9916,91.4965 68.5,90.5 Z"/></g>
<g><path style="opacity:1" fill="#9f2c2a" d="M 44.5,90.5 C 47.1667,90.5 49.8333,90.5 52.5,90.5C 52.5,93.1667 52.5,95.8333 52.5,98.5C 49.8333,98.5 47.1667,98.5 44.5,98.5C 44.5,95.8333 44.5,93.1667 44.5,90.5 Z"/></g>
<g><path style="opacity:1" fill="#ed423f" d="M 45.5,91.5 C 47.5,91.5 49.5,91.5 51.5,91.5C 51.5,93.5 51.5,95.5 51.5,97.5C 49.5,97.5 47.5,97.5 45.5,97.5C 45.5,95.5 45.5,93.5 45.5,91.5 Z"/></g>
<g><path style="opacity:1" fill="#0d0d0d" d="M 179.5,98.5 C 184.123,97.4082 185.956,99.0748 185,103.5C 178.833,109.667 172.667,115.833 166.5,122C 164.711,122.52 163.044,122.187 161.5,121C 159.333,118.833 157.167,116.667 155,114.5C 155.892,107.112 158.726,106.612 163.5,113C 169.493,109.188 174.826,104.355 179.5,98.5 Z"/></g>
<g><path style="opacity:1" fill="#96999c" d="M 121.5,110.5 C 122.043,110.56 122.376,110.893 122.5,111.5C 104.512,112.5 86.5123,112.833 68.5,112.5C 86.1667,111.833 103.833,111.167 121.5,110.5 Z"/></g>
<g><path style="opacity:1" fill="#070707" d="M 39.5,112.5 C 45.8682,112.17 52.2015,112.504 58.5,113.5C 59.6236,119.448 59.7903,125.448 59,131.5C 52.5816,132.643 46.0816,132.81 39.5,132C 38.1852,125.5 38.1852,119 39.5,112.5 Z"/></g>
<g><path style="opacity:1" fill="#782220" d="M 52.5,119.5 C 50.1667,119.5 47.8333,119.5 45.5,119.5C 45.5,121.5 45.5,123.5 45.5,125.5C 47.8333,125.5 50.1667,125.5 52.5,125.5C 50.0521,126.473 47.3854,126.806 44.5,126.5C 44.5,123.833 44.5,121.167 44.5,118.5C 47.3854,118.194 50.0521,118.527 52.5,119.5 Z"/></g>
<g><path style="opacity:1" fill="#e9413e" d="M 52.5,119.5 C 52.5,121.5 52.5,123.5 52.5,125.5C 50.1667,125.5 47.8333,125.5 45.5,125.5C 45.5,123.5 45.5,121.5 45.5,119.5C 47.8333,119.5 50.1667,119.5 52.5,119.5 Z"/></g>
<g><path style="opacity:1" fill="#a4a8ab" d="M 126.5,124.5 C 127.043,124.56 127.376,124.893 127.5,125.5C 107.845,126.5 88.178,126.833 68.5,126.5C 87.8333,125.833 107.167,125.167 126.5,124.5 Z"/></g>
<g><path style="opacity:1" fill="#b0b4b7" d="M 135.5,138.5 C 136.289,138.783 136.956,139.283 137.5,140C 114.502,140.5 91.5024,140.667 68.5,140.5C 90.8333,139.833 113.167,139.167 135.5,138.5 Z"/></g>
<g><path style="opacity:1" fill="#0d0d0d" d="M 39.5,140.5 C 45.5092,140.334 51.5092,140.501 57.5,141C 58,141.5 58.5,142 59,142.5C 59.6667,148.167 59.6667,153.833 59,159.5C 58.5,160 58,160.5 57.5,161C 51.8333,161.667 46.1667,161.667 40.5,161C 40,160.5 39.5,160 39,159.5C 38.2098,153.085 38.3765,146.752 39.5,140.5 Z"/></g>
<g><path style="opacity:1" fill="#a42e2b" d="M 45.5,147.5 C 47.6074,146.532 49.9407,146.198 52.5,146.5C 52.5,149.167 52.5,151.833 52.5,154.5C 49.8333,154.5 47.1667,154.5 44.5,154.5C 44.1984,151.941 44.5318,149.607 45.5,147.5 Z"/></g>
<g><path style="opacity:1" fill="#ed423f" d="M 45.5,147.5 C 47.5,147.5 49.5,147.5 51.5,147.5C 51.5,149.5 51.5,151.5 51.5,153.5C 49.5,153.5 47.5,153.5 45.5,153.5C 45.5,151.5 45.5,149.5 45.5,147.5 Z"/></g>
<g><path style="opacity:1" fill="#164469" d="M 155.5,155.5 C 154.833,170.833 154.167,186.167 153.5,201.5C 153.167,185.819 153.501,170.152 154.5,154.5C 155.107,154.624 155.44,154.957 155.5,155.5 Z"/></g>
<g><path style="opacity:1" fill="#d8dde0" d="M 45.5,46.5 C 44.5655,45.4324 44.2322,44.099 44.5,42.5C 39.1667,42.5 33.8333,42.5 28.5,42.5C 28.5,93.5 28.5,144.5 28.5,195.5C 67.8333,195.5 107.167,195.5 146.5,195.5C 146.5,180.167 146.5,164.833 146.5,149.5C 147.496,164.991 147.83,180.658 147.5,196.5C 107.5,196.5 67.5,196.5 27.5,196.5C 27.5,144.833 27.5,93.1667 27.5,41.5C 33.5,41.5 39.5,41.5 45.5,41.5C 45.5,43.1667 45.5,44.8333 45.5,46.5 Z"/></g>
<g><path style="opacity:1" fill="#0d0e0e" d="M 81.5,175.5 C 98.17,175.333 114.837,175.5 131.5,176C 132.833,178 132.833,180 131.5,182C 115.167,182.667 98.8333,182.667 82.5,182C 80.1656,180.158 79.8323,177.991 81.5,175.5 Z"/></g>
<g><path style="opacity:1" fill="#111112" d="M 67.5,154.5 C 91.169,154.333 114.836,154.5 138.5,155C 139.833,157 139.833,159 138.5,161C 115.167,161.667 91.8333,161.667 68.5,161C 66.3162,159.102 65.9829,156.936 67.5,154.5 Z"/></g>
</svg>
