<?xml version="1.0" encoding="UTF-8"?>
<!DOCTYPE svg PUBLIC "-//W3C//DTD SVG 1.1//EN" "http://www.w3.org/Graphics/SVG/1.1/DTD/svg11.dtd">
<svg xmlns="http://www.w3.org/2000/svg" version="1.1" width="251px" height="201px" style="shape-rendering:geometricPrecision; text-rendering:geometricPrecision; image-rendering:optimizeQuality; fill-rule:evenodd; clip-rule:evenodd" xmlns:xlink="http://www.w3.org/1999/xlink">
<g><path style="opacity:1" fill="#f8fcfe" d="M -0.5,-0.5 C 1.16667,-0.5 2.83333,-0.5 4.5,-0.5C 2.5,0.833333 0.833333,2.5 -0.5,4.5C -0.5,2.83333 -0.5,1.16667 -0.5,-0.5 Z"/></g>
<g><path style="opacity:1" fill="#68bfec" d="M 4.5,-0.5 C 59.1667,-0.5 113.833,-0.5 168.5,-0.5C 170.475,0.646381 171.975,2.31305 173,4.5C 173.833,17.8458 173.666,31.1792 172.5,44.5C 143.428,60.9897 132.595,85.6564 140,118.5C 145.986,135.813 156.986,148.813 173,157.5C 173.667,169.833 173.667,182.167 173,194.5C 171.979,197.35 170.146,199.35 167.5,200.5C 113.167,200.5 58.8333,200.5 4.5,200.5C 2.5,199.167 0.833333,197.5 -0.5,195.5C -0.5,131.833 -0.5,68.1667 -0.5,4.5C 0.833333,2.5 2.5,0.833333 4.5,-0.5 Z"/></g>
<g><path style="opacity:1" fill="#fefefe" d="M 168.5,-0.5 C 195.833,-0.5 223.167,-0.5 250.5,-0.5C 250.5,30.1667 250.5,60.8333 250.5,91.5C 241.734,60.9297 221.4,47.0963 189.5,50C 163.993,56.6747 150.327,73.1747 148.5,99.5C 151.156,130.655 167.989,147.655 199,150.5C 228.332,148.664 245.498,133.33 250.5,104.5C 250.5,136.5 250.5,168.5 250.5,200.5C 222.833,200.5 195.167,200.5 167.5,200.5C 170.146,199.35 171.979,197.35 173,194.5C 173.667,182.167 173.667,169.833 173,157.5C 156.986,148.813 145.986,135.813 140,118.5C 132.595,85.6564 143.428,60.9897 172.5,44.5C 173.666,31.1792 173.833,17.8458 173,4.5C 171.975,2.31305 170.475,0.646381 168.5,-0.5 Z"/></g>
<g><path style="opacity:1" fill="#fefefe" d="M 43.5,46.5 C 70.5021,46.3334 97.5021,46.5 124.5,47C 128.696,49.9811 129.529,53.8144 127,58.5C 126.097,59.7014 124.931,60.5348 123.5,61C 97.1667,61.6667 70.8333,61.6667 44.5,61C 38.281,56.5327 37.9476,51.6994 43.5,46.5 Z"/></g>
<g><path style="opacity:1" fill="#68bfec" d="M 250.5,91.5 C 250.5,95.8333 250.5,100.167 250.5,104.5C 245.498,133.33 228.332,148.664 199,150.5C 167.989,147.655 151.156,130.655 148.5,99.5C 150.327,73.1747 163.993,56.6747 189.5,50C 221.4,47.0963 241.734,60.9297 250.5,91.5 Z"/></g>
<g><path style="opacity:1" fill="#fafcfe" d="M 196.5,72.5 C 200.684,71.7036 203.85,73.037 206,76.5C 206.667,86.5 206.667,96.5 206,106.5C 202.294,111.268 198.294,111.601 194,107.5C 193.333,96.8333 193.333,86.1667 194,75.5C 194.698,74.3094 195.531,73.3094 196.5,72.5 Z"/></g>
<g><path style="opacity:1" fill="#fefefe" d="M 43.5,92.5 C 65.8358,92.3334 88.1692,92.5 110.5,93C 117.167,97.6667 117.167,102.333 110.5,107C 88.1667,107.667 65.8333,107.667 43.5,107C 38.2018,102.092 38.2018,97.2584 43.5,92.5 Z"/></g>
<g><path style="opacity:1" fill="#f8fbfe" d="M 196.5,115.5 C 203.005,114.518 206.172,117.185 206,123.5C 202.797,129.136 198.797,129.802 194,125.5C 191.712,121.318 192.545,117.984 196.5,115.5 Z"/></g>
<g><path style="opacity:1" fill="#fefefe" d="M 43.5,138.5 C 70.5021,138.333 97.5021,138.5 124.5,139C 129.986,144.081 129.653,148.748 123.5,153C 97.1667,153.667 70.8333,153.667 44.5,153C 38.2917,148.58 37.9583,143.747 43.5,138.5 Z"/></g>
<g><path style="opacity:1" fill="#f9fcfe" d="M -0.5,195.5 C 0.833333,197.5 2.5,199.167 4.5,200.5C 2.83333,200.5 1.16667,200.5 -0.5,200.5C -0.5,198.833 -0.5,197.167 -0.5,195.5 Z"/></g>
</svg>
