<?xml version="1.0" encoding="UTF-8"?>
<!DOCTYPE svg PUBLIC "-//W3C//DTD SVG 1.1//EN" "http://www.w3.org/Graphics/SVG/1.1/DTD/svg11.dtd">
<svg xmlns="http://www.w3.org/2000/svg" version="1.1" width="210px" height="297px" style="shape-rendering:geometricPrecision; text-rendering:geometricPrecision; image-rendering:optimizeQuality; fill-rule:evenodd; clip-rule:evenodd" xmlns:xlink="http://www.w3.org/1999/xlink">
<g><path style="opacity:1" fill="#fefefe" d="M -0.5,-0.5 C 69.5,-0.5 139.5,-0.5 209.5,-0.5C 209.5,98.5 209.5,197.5 209.5,296.5C 139.5,296.5 69.5,296.5 -0.5,296.5C -0.5,197.5 -0.5,98.5 -0.5,-0.5 Z"/></g>
<g><path style="opacity:1" fill="#040505" d="M 12.5,22.5 C 22.5578,23.14 32.2245,22.4733 41.5,20.5C 43.2433,17.2496 45.5766,14.4162 48.5,12C 53.1548,11.5008 57.8215,11.3342 62.5,11.5C 65.3075,2.65815 71.4742,-0.675179 81,1.5C 85.1667,1.83333 89.3333,2.16667 93.5,2.5C 96.9566,4.5487 98.9566,7.5487 99.5,11.5C 104.211,11.2816 108.878,11.6149 113.5,12.5C 116.19,14.1935 118.19,16.5268 119.5,19.5C 129.167,20.1667 138.833,20.8333 148.5,21.5C 152.673,23.4875 155.173,26.8208 156,31.5C 156.5,44.1623 156.667,56.8289 156.5,69.5C 157.552,69.3505 158.552,69.5172 159.5,70C 173.744,82.9187 187.911,95.752 202,108.5C 202.262,128.998 199.262,148.998 193,168.5C 188.629,177.565 183.462,186.232 177.5,194.5C 172.833,198.833 168.167,203.167 163.5,207.5C 161.206,208.706 158.873,209.706 156.5,210.5C 156.667,232.503 156.5,254.503 156,276.5C 154.771,280.882 152.271,284.215 148.5,286.5C 103.167,287.833 57.8333,287.833 12.5,286.5C 9.31118,283.815 7.14451,280.482 6,276.5C 5.33333,194.833 5.33333,113.167 6,31.5C 6.71904,27.3741 8.88571,24.3741 12.5,22.5 Z"/></g>
<g><path style="opacity:1" fill="#6ed2f0" d="M 69.5,11.5 C 77.1739,11.3336 84.8406,11.5003 92.5,12C 93.6867,14.7743 95.0201,17.441 96.5,20C 101.533,20.171 106.533,20.671 111.5,21.5C 111.808,22.3081 112.308,22.9747 113,23.5C 113.5,32.1603 113.666,40.8269 113.5,49.5C 91.8333,49.5 70.1667,49.5 48.5,49.5C 48.1934,40.113 48.5267,30.7797 49.5,21.5C 55.1376,20.6701 60.8042,20.1701 66.5,20C 68.077,17.4046 69.077,14.5713 69.5,11.5 Z"/></g>
<g><path style="opacity:1" fill="#202020" d="M 41.5,20.5 C 32.2245,22.4733 22.5578,23.14 12.5,22.5C 21.7755,20.5267 31.4422,19.86 41.5,20.5 Z"/></g>
<g><path style="opacity:1" fill="#3296e8" d="M 41.5,39.5 C 34.0869,38.8721 27.0869,39.5388 20.5,41.5C 19.8826,41.6107 19.3826,41.944 19,42.5C 18.3333,116.833 18.3333,191.167 19,265.5C 19.3826,266.056 19.8826,266.389 20.5,266.5C 40.3221,267.833 60.4888,268.5 81,268.5C 101.511,268.5 121.678,267.833 141.5,266.5C 142.167,266.5 142.5,266.167 142.5,265.5C 143.167,244.833 143.833,224.167 144.5,203.5C 146.785,204.225 148.618,205.558 150,207.5C 150.667,229.833 150.667,252.167 150,274.5C 149.626,275.416 149.126,276.25 148.5,277C 103.262,277.83 58.0958,277.663 13,276.5C 12.3333,194.833 12.3333,113.167 13,31.5C 22.4166,30.5149 31.9166,30.1816 41.5,30.5C 41.5,33.5 41.5,36.5 41.5,39.5 Z"/></g>
<g><path style="opacity:1" fill="#3295e5" d="M 141.5,41.5 C 134.913,39.5388 127.913,38.8721 120.5,39.5C 120.5,36.5 120.5,33.5 120.5,30.5C 129.839,30.3335 139.173,30.5002 148.5,31C 149.126,31.7504 149.626,32.5838 150,33.5C 150.667,46.8333 150.667,60.1667 150,73.5C 148.209,75.4133 146.209,77.08 144,78.5C 143.667,66.5 143.333,54.5 143,42.5C 142.617,41.944 142.117,41.6107 141.5,41.5 Z"/></g>
<g><path style="opacity:1" fill="#0c263a" d="M 41.5,39.5 C 34.9131,41.4612 27.9131,42.1279 20.5,41.5C 27.0869,39.5388 34.0869,38.8721 41.5,39.5 Z"/></g>
<g><path style="opacity:1" fill="#0c263b" d="M 120.5,39.5 C 127.913,38.8721 134.913,39.5388 141.5,41.5C 134.087,42.1279 127.087,41.4612 120.5,39.5 Z"/></g>
<g><path style="opacity:1" fill="#e5eaee" d="M 43.5,58.5 C 55.6483,59.8325 68.1483,60.4991 81,60.5C 93.8517,60.4991 106.352,59.8325 118.5,58.5C 120.268,55.8375 120.935,52.8375 120.5,49.5C 126.167,49.5 131.833,49.5 137.5,49.5C 137.832,61.5185 137.499,73.5185 136.5,85.5C 134.5,87.5 132.5,89.5 130.5,91.5C 129.738,90.3717 129.071,89.2051 128.5,88C 96.8333,87.3333 65.1667,87.3333 33.5,88C 31.0468,90.7493 31.0468,93.5827 33.5,96.5C 63.0142,96.8356 92.3476,97.8356 121.5,99.5C 118.754,101.918 115.754,103.918 112.5,105.5C 95.7991,104.848 79.4658,105.515 63.5,107.5C 62.0069,108.312 61.3402,109.645 61.5,111.5C 61.3402,113.355 62.0069,114.688 63.5,115.5C 78.9911,116.496 94.6578,116.83 110.5,116.5C 110.5,119.167 110.5,121.833 110.5,124.5C 94.4643,123.849 78.7977,124.516 63.5,126.5C 62.0069,127.312 61.3402,128.645 61.5,130.5C 61.5698,131.772 61.9032,132.938 62.5,134C 78.8333,134.333 95.1667,134.667 111.5,135C 112.435,137.381 112.768,139.881 112.5,142.5C 95.9744,142.838 79.6411,143.838 63.5,145.5C 61.2549,147.417 60.9215,149.75 62.5,152.5C 80.1572,153.333 97.8239,153.833 115.5,154C 116.554,156.382 117.221,158.882 117.5,161.5C 99.3101,161.838 81.3101,162.838 63.5,164.5C 61.2549,166.417 60.9215,168.75 62.5,171.5C 82.8333,172.167 103.167,172.833 123.5,173.5C 124.577,175.729 125.244,178.063 125.5,180.5C 104.646,180.837 83.9798,181.837 63.5,183.5C 61.2549,185.417 60.9215,187.75 62.5,190.5C 84.5,191.833 106.5,191.833 128.5,190.5C 128.833,189.5 129.5,188.833 130.5,188.5C 131.897,190.606 133.73,192.273 136,193.5C 137.478,215.075 137.978,236.742 137.5,258.5C 100.167,258.5 62.8333,258.5 25.5,258.5C 25.5,188.833 25.5,119.167 25.5,49.5C 30.8333,49.5 36.1667,49.5 41.5,49.5C 41.3359,52.1873 41.5026,54.854 42,57.5C 42.3826,58.056 42.8826,58.3893 43.5,58.5 Z"/></g>
<g><path style="opacity:1" fill="#cdd3d5" d="M 43.5,58.5 C 68.5,58.5 93.5,58.5 118.5,58.5C 106.352,59.8325 93.8517,60.4991 81,60.5C 68.1483,60.4991 55.6483,59.8325 43.5,58.5 Z"/></g>
<g><path style="opacity:1" fill="#0e0e0e" d="M 33.5,68.5 C 65.1684,68.3334 96.8351,68.5 128.5,69C 129.833,71.6667 129.833,74.3333 128.5,77C 96.8333,77.6667 65.1667,77.6667 33.5,77C 30.8852,74.0931 30.8852,71.2598 33.5,68.5 Z"/></g>
<g><path style="opacity:1" fill="#6acae7" d="M 154.5,78.5 C 156.433,78.7286 158.1,79.5619 159.5,81C 171.28,91.6271 183.113,102.127 195,112.5C 197.303,144.773 187.47,172.44 165.5,195.5C 162.42,197.432 159.254,199.099 156,200.5C 151.383,198.015 147.05,195.015 143,191.5C 124.669,168.501 116.336,142.168 118,112.5C 129.08,102.763 140.247,93.2631 151.5,84C 152.758,82.2591 153.758,80.4258 154.5,78.5 Z"/></g>
<g><path style="opacity:1" fill="#060809" d="M 154.5,91.5 C 156.827,91.2471 158.827,91.9137 160.5,93.5C 169.207,101.176 177.874,108.843 186.5,116.5C 188.042,118.879 188.709,121.546 188.5,124.5C 187.158,139.871 183.324,154.538 177,168.5C 171.962,175.028 166.796,181.361 161.5,187.5C 159.043,189.225 156.377,189.725 153.5,189C 135.413,172.154 125.746,151.154 124.5,126C 124.547,123.111 124.88,120.278 125.5,117.5C 135.212,108.783 144.879,100.116 154.5,91.5 Z"/></g>
<g><path style="opacity:1" fill="#b6babd" d="M 33.5,96.5 C 63.5019,96.3334 93.5019,96.5 123.5,97C 122.934,97.9947 122.267,98.828 121.5,99.5C 92.3476,97.8356 63.0142,96.8356 33.5,96.5 Z"/></g>
<g><path style="opacity:1" fill="#e5eaee" d="M 154.5,101.5 C 157.489,102.083 160.155,103.416 162.5,105.5C 167.537,111.276 173.204,116.276 179.5,120.5C 180.993,122.364 181.66,124.53 181.5,127C 180.514,148.463 172.181,166.296 156.5,180.5C 149.427,174.249 143.594,166.915 139,158.5C 134.413,147.224 131.746,135.557 131,123.5C 138.192,117.304 145.359,111.137 152.5,105C 153.823,104.184 154.489,103.017 154.5,101.5 Z"/></g>
<g><path style="opacity:1" fill="#7c7f81" d="M 53.5,107.5 C 48.1667,107.5 42.8333,107.5 37.5,107.5C 39.7432,106.188 42.4098,105.522 45.5,105.5C 48.5902,105.522 51.2568,106.188 53.5,107.5 Z"/></g>
<g><path style="opacity:1" fill="#7a7d7f" d="M 112.5,105.5 C 96.5342,107.485 80.2009,108.152 63.5,107.5C 79.4658,105.515 95.7991,104.848 112.5,105.5 Z"/></g>
<g><path style="opacity:1" fill="#020101" d="M 37.5,107.5 C 42.8333,107.5 48.1667,107.5 53.5,107.5C 54.4933,116.318 54.8266,125.318 54.5,134.5C 48.2424,134.81 42.0758,134.476 36,133.5C 35.3333,125.167 35.3333,116.833 36,108.5C 36.3826,107.944 36.8826,107.611 37.5,107.5 Z"/></g>
<g><path style="opacity:1" fill="#e4403d" d="M 48.5,124.5 C 46.1667,124.5 43.8333,124.5 41.5,124.5C 41.5,121.5 41.5,118.5 41.5,115.5C 43.8333,115.5 46.1667,115.5 48.5,115.5C 48.5,118.5 48.5,121.5 48.5,124.5 Z"/></g>
<g><path style="opacity:1" fill="#872624" d="M 41.5,124.5 C 43.8333,124.5 46.1667,124.5 48.5,124.5C 47.8478,125.725 46.6811,126.392 45,126.5C 43.3189,126.392 42.1522,125.725 41.5,124.5 Z"/></g>
<g><path style="opacity:1" fill="#878b8d" d="M 63.5,115.5 C 79.5,115.5 95.5,115.5 111.5,115.5C 111.5,119.167 111.5,122.833 111.5,126.5C 95.5,126.5 79.5,126.5 63.5,126.5C 78.7977,124.516 94.4643,123.849 110.5,124.5C 110.5,121.833 110.5,119.167 110.5,116.5C 94.6578,116.83 78.9911,116.496 63.5,115.5 Z"/></g>
<g><path style="opacity:1" fill="#0d0d0e" d="M 167.5,126.5 C 172.213,126.468 173.713,128.801 172,133.5C 166.409,142.258 160.242,150.591 153.5,158.5C 148.689,154.873 145.355,150.206 143.5,144.5C 143.69,142.144 144.857,140.477 147,139.5C 149.351,141.519 151.351,143.852 153,146.5C 158.087,139.981 162.921,133.314 167.5,126.5 Z"/></g>
<g><path style="opacity:1" fill="#999c9f" d="M 53.5,145.5 C 48.1667,145.5 42.8333,145.5 37.5,145.5C 39.7432,144.188 42.4098,143.522 45.5,143.5C 48.5902,143.522 51.2568,144.188 53.5,145.5 Z"/></g>
<g><path style="opacity:1" fill="#96999c" d="M 112.5,142.5 C 113.404,143.209 113.737,144.209 113.5,145.5C 96.8333,145.5 80.1667,145.5 63.5,145.5C 79.6411,143.838 95.9744,142.838 112.5,142.5 Z"/></g>
<g><path style="opacity:1" fill="#030101" d="M 37.5,145.5 C 42.8333,145.5 48.1667,145.5 53.5,145.5C 54.4933,154.318 54.8266,163.318 54.5,172.5C 48.4632,172.829 42.4632,172.496 36.5,171.5C 35.3638,163.215 35.1971,154.882 36,146.5C 36.3826,145.944 36.8826,145.611 37.5,145.5 Z"/></g>
<g><path style="opacity:1" fill="#ed423f" d="M 41.5,154.5 C 43.5,154.5 45.5,154.5 47.5,154.5C 47.5,157.167 47.5,159.833 47.5,162.5C 45.5,162.5 43.5,162.5 41.5,162.5C 41.5,159.833 41.5,157.167 41.5,154.5 Z"/></g>
<g><path style="opacity:1" fill="#a72e2c" d="M 41.5,154.5 C 43.6074,153.532 45.9407,153.198 48.5,153.5C 48.5,157.167 48.5,160.833 48.5,164.5C 45.6122,165.01 43.2789,164.344 41.5,162.5C 43.5,162.5 45.5,162.5 47.5,162.5C 47.5,159.833 47.5,157.167 47.5,154.5C 45.5,154.5 43.5,154.5 41.5,154.5 Z"/></g>
<g><path style="opacity:1" fill="#a4a8ab" d="M 117.5,161.5 C 118.404,162.209 118.737,163.209 118.5,164.5C 100.167,164.5 81.8333,164.5 63.5,164.5C 81.3101,162.838 99.3101,161.838 117.5,161.5 Z"/></g>
<g><path style="opacity:1" fill="#b3b7ba" d="M 53.5,183.5 C 48.1667,183.5 42.8333,183.5 37.5,183.5C 39.7432,182.188 42.4098,181.522 45.5,181.5C 48.5902,181.522 51.2568,182.188 53.5,183.5 Z"/></g>
<g><path style="opacity:1" fill="#afb3b6" d="M 125.5,180.5 C 126.478,180.811 127.145,181.478 127.5,182.5C 106.177,183.5 84.8437,183.833 63.5,183.5C 83.9798,181.837 104.646,180.837 125.5,180.5 Z"/></g>
<g><path style="opacity:1" fill="#070606" d="M 37.5,183.5 C 42.8333,183.5 48.1667,183.5 53.5,183.5C 54.6369,192.422 54.8035,201.422 54,210.5C 48.5838,211.639 43.0838,211.806 37.5,211C 36.8742,210.25 36.3742,209.416 36,208.5C 35.3333,200.5 35.3333,192.5 36,184.5C 36.3826,183.944 36.8826,183.611 37.5,183.5 Z"/></g>
<g><path style="opacity:1" fill="#de3e3b" d="M 41.5,191.5 C 43.8333,191.5 46.1667,191.5 48.5,191.5C 48.5,194.833 48.5,198.167 48.5,201.5C 46.1667,201.5 43.8333,201.5 41.5,201.5C 41.5,198.167 41.5,194.833 41.5,191.5 Z"/></g>
<g><path style="opacity:1" fill="#0e0e0e" d="M 62.5,201.5 C 84.5101,201.167 106.51,201.5 128.5,202.5C 129.795,205.366 129.795,208.199 128.5,211C 106.833,211.667 85.1667,211.667 63.5,211C 61.2742,208.036 60.9409,204.87 62.5,201.5 Z"/></g>
<g><path style="opacity:1" fill="#164469" d="M 144.5,203.5 C 143.833,224.167 143.167,244.833 142.5,265.5C 142.167,244.156 142.5,222.823 143.5,201.5C 144.298,201.957 144.631,202.624 144.5,203.5 Z"/></g>
<g><path style="opacity:1" fill="#0b0b0b" d="M 75.5,230.5 C 91.1702,230.333 106.837,230.5 122.5,231C 123.833,233.667 123.833,236.333 122.5,239C 107.167,239.667 91.8333,239.667 76.5,239C 74.1618,236.458 73.8285,233.625 75.5,230.5 Z"/></g>
<g><path style="opacity:1" fill="#06121b" d="M 20.5,266.5 C 60.8333,266.5 101.167,266.5 141.5,266.5C 121.678,267.833 101.511,268.5 81,268.5C 60.4888,268.5 40.3221,267.833 20.5,266.5 Z"/></g>
</svg>
